<?xml version="1.0" encoding="UTF-8" standalone="no"?>
<svg width="44px" height="36px" viewBox="0 0 44 36" version="1.1" xmlns="http://www.w3.org/2000/svg" xmlns:xlink="http://www.w3.org/1999/xlink" xmlns:sketch="http://www.bohemiancoding.com/sketch/ns">
    <!-- Generator: Sketch 3.2.2 (9983) - http://www.bohemiancoding.com/sketch -->
    <title>Imported Layers</title>
    <desc>Created with Sketch.</desc>
    <defs></defs>
    <g id="Page-1" stroke="none" stroke-width="1" fill="none" fill-rule="evenodd" sketch:type="MSPage">
        <g id="Desktop-HD" sketch:type="MSArtboardGroup" transform="translate(-820.000000, -7238.000000)" fill="#000000">
            <g id="More-features" sketch:type="MSLayerGroup" transform="translate(0.000000, 6834.000000)">
                <g id="Artists-3" transform="translate(820.000000, 397.000000)" sketch:type="MSShapeGroup">
                    <path d="M43,7 L1,7 C0.448,7 0,7.448 0,8 L0,36 C0,36.553 0.448,37 1,37 L9,37 C9.552,37 10,36.553 10,36 C10,35.447 9.552,35 9,35 L2,35 L2,9 L42,9 L42,35 L35,35 C34.448,35 34,35.447 34,36 C34,36.553 34.448,37 35,37 L43,37 C43.552,37 44,36.553 44,36 L44,8 C44,7.448 43.552,7 43,7 L43,7 Z M34.759,41.35 L22.759,27.35 L22.75,27.357 C22.567,27.143 22.304,27 22,27 C21.696,27 21.433,27.143 21.25,27.357 L21.241,27.35 L9.241,41.35 L9.25,41.358 C9.1,41.532 9,41.752 9,42 C9,42.553 9.448,43 10,43 L34,43 C34.552,43 35,42.553 35,42 C35,41.752 34.9,41.532 34.75,41.358 L34.759,41.35 L34.759,41.35 Z M12.174,41 L22,29.537 L31.826,41 L12.174,41 L12.174,41 Z" id="Imported-Layers"></path>
                </g>
            </g>
        </g>
    </g>
</svg>