<?xml version="1.0" encoding="UTF-8" standalone="no"?>
<svg width="44px" height="36px" viewBox="0 0 44 36" version="1.1" xmlns="http://www.w3.org/2000/svg" xmlns:xlink="http://www.w3.org/1999/xlink" xmlns:sketch="http://www.bohemiancoding.com/sketch/ns">
    <!-- Generator: Sketch 3.3 (11970) - http://www.bohemiancoding.com/sketch -->
    <title>Imported Layers</title>
    <desc>Created with Sketch.</desc>
    <defs></defs>
    <g id="Page-1" stroke="none" stroke-width="1" fill="none" fill-rule="evenodd" sketch:type="MSPage">
        <g id="Features" sketch:type="MSArtboardGroup" transform="translate(-358.000000, -550.000000)" fill="#BF65CD">
            <path d="M365,572 L359,572 C358.448,572 358,572.448 358,573 L358,585 C358,585.553 358.448,586 359,586 L365,586 C365.552,586 366,585.553 366,585 L366,573 C366,572.448 365.552,572 365,572 L365,572 Z M360,574 L364,574 L364,584 L360,584 L360,574 Z M401,550 L395,550 C394.448,550 394,550.448 394,551 L394,585 C394,585.553 394.448,586 395,586 L401,586 C401.552,586 402,585.553 402,585 L402,551 C402,550.448 401.552,550 401,550 L401,550 Z M396,552 L400,552 L400,584 L396,584 L396,552 Z M389,566 L383,566 C382.448,566 382,566.448 382,567 L382,585 C382,585.553 382.448,586 383,586 L389,586 C389.552,586 390,585.553 390,585 L390,567 C390,566.448 389.552,566 389,566 L389,566 Z M384,568 L388,568 L388,584 L384,584 L384,568 Z M377,554 L371,554 C370.448,554 370,554.448 370,555 L370,585 C370,585.553 370.448,586 371,586 L377,586 C377.552,586 378,585.553 378,585 L378,555 C378,554.448 377.552,554 377,554 L377,554 Z M372,556 L376,556 L376,584 L372,584 L372,556 Z" id="Imported-Layers" sketch:type="MSShapeGroup"></path>
        </g>
    </g>
</svg>