<?xml version="1.0" encoding="UTF-8" standalone="no"?>
<svg width="44px" height="44px" viewBox="0 0 44 44" version="1.1" xmlns="http://www.w3.org/2000/svg" xmlns:xlink="http://www.w3.org/1999/xlink" xmlns:sketch="http://www.bohemiancoding.com/sketch/ns">
    <!-- Generator: Sketch 3.2.2 (9983) - http://www.bohemiancoding.com/sketch -->
    <title>Imported Layers</title>
    <desc>Created with Sketch.</desc>
    <defs></defs>
    <g id="Page-1" stroke="none" stroke-width="1" fill="none" fill-rule="evenodd" sketch:type="MSPage">
        <g id="Desktop-HD" sketch:type="MSArtboardGroup" transform="translate(-817.000000, -7462.000000)" fill="#000000">
            <g id="More-features" sketch:type="MSLayerGroup" transform="translate(0.000000, 6834.000000)">
                <g id="BLoggers-3" transform="translate(817.000000, 626.000000)" sketch:type="MSShapeGroup">
                    <path d="M22,24 C20.344,24 19,25.344 19,27 C19,28.657 20.344,30 22,30 C23.656,30 25,28.657 25,27 C25,25.344 23.656,24 22,24 L22,24 Z M22,28 C21.447,28 21,27.553 21,27 C21,26.447 21.447,26 22,26 C22.553,26 23,26.447 23,27 C23,27.553 22.553,28 22,28 L22,28 Z M38,18 L35.446,18 C33.781,8.773 28.404,2 22,2 C15.596,2 10.219,8.773 8.555,18 L6,18 C2.687,18 0,20.687 0,24 C0,25.117 0.308,25.898 0.308,25.898 L6.352,43.626 C6.352,43.626 7.032,46 10,46 L34,46 C36.979,46 37.818,43.136 37.827,43.102 L43.667,25.889 C43.866,25.292 44,24.664 44,24 C44,20.687 41.314,18 38,18 L38,18 Z M22,4 C27.37,4 31.894,9.894 33.425,18 L10.575,18 C12.106,9.894 16.631,4 22,4 L22,4 Z M35.934,42.456 C35.925,42.457 35.522,44 34,44 L10,44 C8.493,44 8.066,42.456 8.066,42.456 L4.473,31.917 C9.303,34.445 15.586,36 22.5,36 C28.852,36 34.669,34.688 39.322,32.517 L35.934,42.456 L35.934,42.456 Z M41.695,25.554 L40.221,29.88 C35.632,32.416 29.406,34 22.5,34 C14.946,34 8.196,32.113 3.527,29.147 L2.307,25.563 C2.307,25.563 2,24.756 2,24 C2,21.795 3.795,20 6,20 L38,20 C40.206,20 42,21.795 42,24 C42,24.76 41.695,25.554 41.695,25.554 L41.695,25.554 Z" id="Imported-Layers"></path>
                </g>
            </g>
        </g>
    </g>
</svg>