<?xml version="1.0" encoding="UTF-8" standalone="no"?>
<svg width="44px" height="40px" viewBox="0 0 44 40" version="1.1" xmlns="http://www.w3.org/2000/svg" xmlns:xlink="http://www.w3.org/1999/xlink" xmlns:sketch="http://www.bohemiancoding.com/sketch/ns">
    <!-- Generator: Sketch 3.3 (11970) - http://www.bohemiancoding.com/sketch -->
    <title>Imported Layers</title>
    <desc>Created with Sketch.</desc>
    <defs></defs>
    <g id="Page-1" stroke="none" stroke-width="1" fill="none" fill-rule="evenodd" sketch:type="MSPage">
        <g id="Features" sketch:type="MSArtboardGroup" transform="translate(-990.000000, -548.000000)" fill="#F05581">
            <path d="M1002,563 C1000.344,563 999,564.344 999,566 C999,567.657 1000.344,569 1002,569 C1003.656,569 1005,567.657 1005,566 C1005,564.344 1003.656,563 1002,563 L1002,563 Z M1012,563 C1010.344,563 1009,564.344 1009,566 C1009,567.657 1010.344,569 1012,569 C1013.656,569 1015,567.657 1015,566 C1015,564.344 1013.656,563 1012,563 L1012,563 Z M1012,548 C999.85,548 990,556.06 990,566 C990,570.876 992.379,575.292 996.228,578.533 L994,588 L1005.828,583.269 C1007.788,583.736 1009.855,584 1012,584 C1024.15,584 1034,575.942 1034,566 C1034,556.06 1024.15,548 1012,548 L1012,548 Z M1012,582 C1010.094,582 1008.174,581.772 1006.293,581.323 C1006.14,581.287 1005.983,581.269 1005.828,581.269 C1005.575,581.269 1005.322,581.316 1005.086,581.412 L996.828,584.715 L998.174,578.991 C998.348,578.257 998.092,577.489 997.516,577.004 C993.959,574.009 992,570.1 992,566 C992,557.178 1000.973,550 1012,550 C1023.028,550 1032,557.178 1032,566 C1032,574.822 1023.028,582 1012,582 L1012,582 Z M1022,563 C1020.344,563 1019,564.344 1019,566 C1019,567.657 1020.344,569 1022,569 C1023.656,569 1025,567.657 1025,566 C1025,564.344 1023.656,563 1022,563 L1022,563 Z" id="Imported-Layers" sketch:type="MSShapeGroup"></path>
        </g>
    </g>
</svg>