<?xml version="1.0" encoding="UTF-8" standalone="no"?>
<svg width="44px" height="44px" viewBox="0 0 44 44" version="1.1" xmlns="http://www.w3.org/2000/svg" xmlns:xlink="http://www.w3.org/1999/xlink" xmlns:sketch="http://www.bohemiancoding.com/sketch/ns">
    <!-- Generator: Sketch 3.3 (11970) - http://www.bohemiancoding.com/sketch -->
    <title>Imported Layers</title>
    <desc>Created with Sketch.</desc>
    <defs></defs>
    <g id="Page-1" stroke="none" stroke-width="1" fill="none" fill-rule="evenodd" sketch:type="MSPage">
        <g id="Features-with-phone" sketch:type="MSArtboardGroup" transform="translate(-97.000000, -377.000000)" fill="#000000">
            <g id="Business-Copy-2" sketch:type="MSLayerGroup" transform="translate(97.000000, 375.000000)">
                <path d="M27.339,23.069 L25.727,22.639 C27.103,21.552 28,19.894 28,18 C28,15.532 26.508,13.416 24.378,12.495 L23.838,14.468 C25.117,15.135 26,16.458 26,18 C26,19.25 25.416,20.35 24.516,21.078 L25.046,19.099 C25.112,18.852 25.084,18.579 24.946,18.34 C24.67,17.861 24.059,17.697 23.58,17.974 C23.341,18.112 23.181,18.334 23.114,18.581 L22.016,22.679 L22.017,22.679 C21.95,22.927 21.978,23.199 22.116,23.438 C22.245,23.661 22.451,23.809 22.678,23.882 L22.664,23.934 C22.697,23.93 22.728,23.921 22.76,23.914 L26.821,25.002 C27.068,25.068 27.341,25.04 27.581,24.902 C28.059,24.625 28.223,24.014 27.946,23.536 C27.808,23.297 27.586,23.136 27.339,23.069 L27.339,23.069 Z M40,2 L4,2 C1.791,2 0,3.791 0,6 L0,36 C0,38.209 1.791,40 4,40 L18,40 L18,44 L15,44 C14.448,44 14,44.447 14,45 C14,45.553 14.448,46 15,46 L29,46 C29.552,46 30,45.553 30,45 C30,44.447 29.552,44 29,44 L26,44 L26,40 L40,40 C42.209,40 44,38.209 44,36 L44,6 C44,3.791 42.209,2 40,2 L40,2 Z M20,40 L24,40 L24,44 L20,44 L20,40 Z M42,36 C42,37.105 41.104,38 40,38 L4,38 C2.895,38 2,37.105 2,36 L2,34 L42,34 L42,36 L42,36 Z M42,32 L2,32 L2,6 C2,4.896 2.895,4 4,4 L40,4 C41.104,4 42,4.896 42,6 L42,32 L42,32 Z M21.946,12.594 C21.82,12.375 21.62,12.231 21.397,12.156 L21.424,12.059 C21.355,12.064 21.289,12.082 21.223,12.097 L17.241,11.03 C16.994,10.964 16.721,10.992 16.482,11.13 C16.004,11.406 15.84,12.018 16.116,12.496 C16.254,12.735 16.476,12.895 16.724,12.962 L18.261,13.374 C16.891,14.459 16,16.111 16,18 C16,20.498 17.528,22.637 19.699,23.539 L20.236,21.574 C18.916,20.921 18,19.573 18,18 C18,16.709 18.622,15.577 19.574,14.851 L19.017,16.933 C18.95,17.181 18.978,17.453 19.116,17.692 C19.392,18.171 20.004,18.334 20.482,18.059 C20.721,17.92 20.882,17.698 20.948,17.451 L22.046,13.352 C22.112,13.105 22.084,12.833 21.946,12.594 L21.946,12.594 Z" id="Imported-Layers" sketch:type="MSShapeGroup"></path>
            </g>
        </g>
    </g>
</svg>