<?xml version="1.0" encoding="UTF-8" standalone="no"?>
<svg width="44px" height="40px" viewBox="0 0 44 40" version="1.1" xmlns="http://www.w3.org/2000/svg" xmlns:xlink="http://www.w3.org/1999/xlink" xmlns:sketch="http://www.bohemiancoding.com/sketch/ns">
    <!-- Generator: Sketch 3.2.2 (9983) - http://www.bohemiancoding.com/sketch -->
    <title>Imported Layers</title>
    <desc>Created with Sketch.</desc>
    <defs></defs>
    <g id="Page-1" stroke="none" stroke-width="1" fill="none" fill-rule="evenodd" sketch:type="MSPage">
        <g id="Desktop-HD" sketch:type="MSArtboardGroup" transform="translate(-680.000000, -2081.000000)" fill="#000000">
            <g id="Features-2" sketch:type="MSLayerGroup" transform="translate(-31.000000, 1784.000000)">
                <g id="Artists" transform="translate(711.000000, 297.000000)" sketch:type="MSShapeGroup">
                    <path d="M13,30 C12.448,30 12,30.448 12,31 L12,35 C12,35.553 12.448,36 13,36 C13.552,36 14,35.553 14,35 L14,31 C14,30.448 13.552,30 13,30 L13,30 Z M19,32 C18.448,32 18,32.447 18,33 L18,39 C18,39.553 18.448,40 19,40 C19.552,40 20,39.553 20,39 L20,33 C20,32.447 19.552,32 19,32 L19,32 Z M7,28 C6.448,28 6,28.447 6,29 L6,35 C6,35.553 6.448,36 7,36 C7.552,36 8,35.553 8,35 L8,29 C8,28.447 7.552,28 7,28 L7,28 Z M25,30 C24.448,30 24,30.448 24,31 L24,37 C24,37.553 24.448,38 25,38 C25.552,38 26,37.553 26,37 L26,31 C26,30.448 25.552,30 25,30 L25,30 Z M37,28 C36.448,28 36,28.447 36,29 L36,33 C36,33.553 36.448,34 37,34 C37.552,34 38,33.553 38,33 L38,29 C38,28.447 37.552,28 37,28 L37,28 Z M31,28 C30.448,28 30,28.447 30,29 L30,35 C30,35.553 30.448,36 31,36 C31.552,36 32,35.553 32,35 L32,29 C32,28.447 31.552,28 31,28 L31,28 Z M37.986,10.259 C37.99,10.173 38,10.088 38,10 C38,6.687 35.313,4 32,4 C30.488,4 29.11,4.563 28.055,5.486 C25.92,2.19 22.222,0 18,0 C11.977,0 7.005,4.441 6.146,10.225 C2.623,11.062 0,14.221 0,18 C0,22.418 3.581,26 8,26 L36,26 C40.418,26 44,22.418 44,18 C44,14.269 41.441,11.144 37.986,10.259 L37.986,10.259 Z M36,24 L8,24 C4.691,24 2,21.309 2,18 C2,15.213 3.895,12.815 6.608,12.17 C7.403,11.981 8.003,11.327 8.124,10.519 C8.846,5.662 13.092,2 18,2 C21.391,2 23.522,2.71 25.376,5.573 C25.691,6.06 27.203,7.387 27.777,7.467 C27.87,7.481 28.055,7.486 28.055,7.486 C28.536,7.486 29.004,7.312 29.371,6.992 C30.102,6.352 31.036,6 32,6 C34.206,6 36,7.795 35.997,10.021 L35.988,10.168 C35.945,11.115 36.572,11.961 37.49,12.196 C40.146,12.877 42,15.263 42,18 C42,21.309 39.309,24 36,24 L36,24 Z" id="Imported-Layers"></path>
                </g>
            </g>
        </g>
    </g>
</svg>