<?xml version="1.0" encoding="UTF-8" standalone="no"?>
<svg width="54px" height="50px" viewBox="0 0 54 50" version="1.1" xmlns="http://www.w3.org/2000/svg" xmlns:xlink="http://www.w3.org/1999/xlink" xmlns:sketch="http://www.bohemiancoding.com/sketch/ns">
    <!-- Generator: Sketch 3.2.2 (9983) - http://www.bohemiancoding.com/sketch -->
    <title>Imported Layers</title>
    <desc>Created with Sketch.</desc>
    <defs></defs>
    <g id="Page-1" stroke="none" stroke-width="1" fill="none" fill-rule="evenodd" sketch:type="MSPage">
        <g id="Desktop-HD" sketch:type="MSArtboardGroup" transform="translate(-1023.000000, -6542.000000)" fill="#CE4F2E">
            <g id="How-it-works" sketch:type="MSLayerGroup" transform="translate(0.000000, 6114.000000)">
                <g id="PLAY-+-Start-playing-the-ga-+-Imported-Layers" transform="translate(962.000000, 428.000000)" sketch:type="MSShapeGroup">
                    <path d="M91.6818182,28.7496111 C91.0043636,28.7496111 90.4545455,29.3083611 90.4545455,29.9996111 C90.4545455,30.6908611 91.0043636,31.2496111 91.6818182,31.2496111 C92.3592727,31.2496111 92.9090909,30.6908611 92.9090909,29.9996111 C92.9090909,29.3083611 92.3592727,28.7496111 91.6818182,28.7496111 L91.6818182,28.7496111 Z M78.1818182,34.9996111 L75.7272727,34.9996111 L75.7272727,32.4996111 C75.7272727,31.8096111 75.1774545,31.2496111 74.5,31.2496111 C73.8225455,31.2496111 73.2727273,31.8096111 73.2727273,32.4996111 L73.2727273,34.9996111 L70.8181818,34.9996111 C70.1407273,34.9996111 69.5909091,35.5583611 69.5909091,36.2496111 C69.5909091,36.9408611 70.1407273,37.4996111 70.8181818,37.4996111 L73.2727273,37.4996111 L73.2727273,39.9996111 C73.2727273,40.6908611 73.8225455,41.2496111 74.5,41.2496111 C75.1774545,41.2496111 75.7272727,40.6908611 75.7272727,39.9996111 L75.7272727,37.4996111 L78.1818182,37.4996111 C78.8592727,37.4996111 79.4090909,36.9408611 79.4090909,36.2496111 C79.4090909,35.5583611 78.8592727,34.9996111 78.1818182,34.9996111 L78.1818182,34.9996111 Z M84.3181818,28.7496111 C83.6407273,28.7496111 83.0909091,29.3083611 83.0909091,29.9996111 C83.0909091,30.6908611 83.6407273,31.2496111 84.3181818,31.2496111 C84.9956364,31.2496111 85.5454545,30.6908611 85.5454545,29.9996111 C85.5454545,29.3083611 84.9956364,28.7496111 84.3181818,28.7496111 L84.3181818,28.7496111 Z M99.0454545,36.2496111 C97.6905455,36.2496111 96.5909091,37.3696111 96.5909091,38.7496111 C96.5909091,40.1321111 97.6905455,41.2496111 99.0454545,41.2496111 C100.401591,41.2496111 101.5,40.1321111 101.5,38.7496111 C101.5,37.3696111 100.401591,36.2496111 99.0454545,36.2496111 L99.0454545,36.2496111 Z M103.954545,31.2496111 C102.599636,31.2496111 101.5,32.3696111 101.5,33.7496111 C101.5,35.1308611 102.599636,36.2496111 103.954545,36.2496111 C105.310682,36.2496111 106.409091,35.1308611 106.409091,33.7496111 C106.409091,32.3696111 105.310682,31.2496111 103.954545,31.2496111 L103.954545,31.2496111 Z M101.5,22.4996111 L89.2984545,22.4996111 C88.0932727,20.2408611 89.0677273,19.0896111 90.8570909,17.3008611 C92.3187727,15.8421111 94.1363636,14.0271111 94.1363636,11.2508611 C94.1363636,4.30711115 86.4217273,0.298361149 86.0940455,0.132111149 C85.489,-0.176638851 84.7526364,0.0746111494 84.4482727,0.689611149 C84.1451364,1.30711115 84.3905909,2.05836115 84.9956364,2.36836115 C85.0619091,2.40211115 91.6818182,5.85961115 91.6818182,11.2508611 C91.6818182,12.9771111 90.4471818,14.2096111 89.1389091,15.5158611 C87.4612273,17.1921111 85.4374545,19.2708611 86.6917273,22.4996111 L74.5,22.4996111 C67.0443182,22.4996111 61,28.6571111 61,36.2496111 C61,43.8433611 67.0443182,49.9996111 74.5,49.9996111 C78.6923636,49.9996111 82.438,48.0533611 84.9134091,44.9996111 L91.0865909,44.9996111 C93.562,48.0533611 97.3076364,49.9996111 101.5,49.9996111 C108.955682,49.9996111 115,43.8433611 115,36.2496111 C115,28.6571111 108.955682,22.4996111 101.5,22.4996111 L101.5,22.4996111 Z M101.5,47.4996111 C97.6709091,47.4996111 94.2983636,45.5133611 92.3175455,42.4996111 L83.6824545,42.4996111 C81.7016364,45.5133611 78.3290909,47.4996111 74.5,47.4996111 C68.3992273,47.4996111 63.4545455,42.4633611 63.4545455,36.2496111 C63.4545455,30.0358611 68.3992273,24.9996111 74.5,24.9996111 L101.5,24.9996111 C107.600773,24.9996111 112.545455,30.0358611 112.545455,36.2496111 C112.545455,42.4633611 107.600773,47.4996111 101.5,47.4996111 L101.5,47.4996111 Z" id="Imported-Layers"></path>
                </g>
            </g>
        </g>
    </g>
</svg>