<?xml version="1.0" encoding="UTF-8" standalone="no"?>
<svg width="44px" height="40px" viewBox="0 0 44 40" version="1.1" xmlns="http://www.w3.org/2000/svg" xmlns:xlink="http://www.w3.org/1999/xlink" xmlns:sketch="http://www.bohemiancoding.com/sketch/ns">
    <!-- Generator: Sketch 3.3 (11970) - http://www.bohemiancoding.com/sketch -->
    <title>Imported Layers</title>
    <desc>Created with Sketch.</desc>
    <defs></defs>
    <g id="Page-1" stroke="none" stroke-width="1" fill="none" fill-rule="evenodd" sketch:type="MSPage">
        <g id="Features" sketch:type="MSArtboardGroup" transform="translate(-674.000000, -547.000000)" fill="#5B8BE7">
            <path d="M684,557 C685.105,557 686,556.105 686,555 C686,553.896 685.105,553 684,553 C682.896,553 682,553.896 682,555 C682,556.105 682.896,557 684,557 L684,557 Z M698,557 C699.104,557 700,556.105 700,555 C700,553.896 699.104,553 698,553 C696.896,553 696,553.896 696,555 C696,556.105 696.896,557 698,557 L698,557 Z M703,581 L679,581 C678.447,581 678,581.448 678,582 C678,582.553 678.447,583 679,583 L703,583 C703.553,583 704,582.553 704,582 C704,581.448 703.553,581 703,581 L703,581 Z M717,565 C716.839,565 716.692,565.047 716.558,565.115 L716.553,565.106 L708,568.527 L708,565 C708,562.791 706.209,561 704,561 L703.279,561 C704.944,559.534 706,557.393 706,555 C706,550.582 702.418,547 698,547 C694.986,547 692.364,548.669 691,551.131 C689.637,548.669 687.014,547 684,547 C679.582,547 676,550.582 676,555 C676,557.393 677.057,559.534 678.721,561 L678,561 C675.791,561 674,562.791 674,565 L674,583 C674,585.209 675.791,587 678,587 L704,587 C706.209,587 708,585.209 708,583 L708,579.474 L716.553,582.895 L716.557,582.886 C716.692,582.954 716.839,583 717,583 C717.553,583 718,582.553 718,582 L718,566 C718,565.448 717.553,565 717,565 L717,565 Z M698,549 C701.315,549 704,551.687 704,555 C704,558.314 701.315,561 698,561 C694.687,561 692,558.314 692,555 C692,551.687 694.687,549 698,549 L698,549 Z M692.721,561 L689.279,561 C689.969,560.394 690.545,559.667 690.993,558.859 C691.441,559.671 692.029,560.393 692.721,561 L692.721,561 Z M678,555 C678,551.687 680.687,549 684,549 C687.314,549 690,551.687 690,555 C690,558.314 687.314,561 684,561 C680.687,561 678,558.314 678,555 L678,555 Z M706,570 L706,583 C706,584.105 705.104,585 704,585 L678,585 C676.896,585 676,584.105 676,583 L676,565 C676,563.896 676.896,563 678,563 L704,563 C705.104,563 706,563.896 706,565 L706,570 L706,570 Z M716,580.527 L708,577.327 L708,570.674 L716,567.474 L716,580.527 L716,580.527 Z M681,571 C682.656,571 684,569.657 684,568 C684,566.344 682.656,565 681,565 C679.344,565 678,566.344 678,568 C678,569.657 679.344,571 681,571 L681,571 Z M681,567 C681.553,567 682,567.448 682,568 C682,568.553 681.553,569 681,569 C680.447,569 680,568.553 680,568 C680,567.448 680.447,567 681,567 L681,567 Z M687,567 C687.553,567 688,566.553 688,566 C688,565.448 687.553,565 687,565 C686.447,565 686,565.448 686,566 C686,566.553 686.447,567 687,567 L687,567 Z" id="Imported-Layers" sketch:type="MSShapeGroup"></path>
        </g>
    </g>
</svg>