<?xml version="1.0" encoding="UTF-8" standalone="no"?>
<svg width="44px" height="44px" viewBox="0 0 44 44" version="1.1" xmlns="http://www.w3.org/2000/svg" xmlns:xlink="http://www.w3.org/1999/xlink" xmlns:sketch="http://www.bohemiancoding.com/sketch/ns">
    <!-- Generator: Sketch 3.2.2 (9983) - http://www.bohemiancoding.com/sketch -->
    <title>Imported Layers</title>
    <desc>Created with Sketch.</desc>
    <defs></defs>
    <g id="Page-1" stroke="none" stroke-width="1" fill="none" fill-rule="evenodd" sketch:type="MSPage">
        <g id="Desktop-HD" sketch:type="MSArtboardGroup" transform="translate(-816.000000, -7357.000000)" fill="#000000">
            <g id="More-features" sketch:type="MSLayerGroup" transform="translate(0.000000, 6834.000000)">
                <g id="Musicians-3" transform="translate(816.000000, 522.000000)" sketch:type="MSShapeGroup">
                    <path d="M17,17 C14.658,17 12.503,17.752 10.721,19 L23.279,19 C21.497,17.752 19.342,17 17,17 L17,17 Z M25.447,21 L8.553,21 C8.041,21.618 7.577,22.279 7.209,23 L26.791,23 C26.423,22.279 25.959,21.618 25.447,21 L25.447,21 Z M8.553,35 L25.447,35 C25.959,34.382 26.423,33.722 26.791,33 L7.209,33 C7.577,33.722 8.041,34.382 8.553,35 L8.553,35 Z M17,39 C19.342,39 21.497,38.248 23.279,37 L10.721,37 C12.504,38.248 14.658,39 17,39 L17,39 Z M27.578,25 L6.422,25 C6.239,25.644 6.112,26.313 6.051,27 L27.949,27 C27.888,26.313 27.761,25.644 27.578,25 L27.578,25 Z M38,19 C36.896,19 36,19.896 36,21 C36,22.104 36.896,23 38,23 C39.105,23 40,22.104 40,21 C40,19.896 39.105,19 38,19 L38,19 Z M38,27 C37.447,27 37,27.448 37,28 C37,28.553 37.447,29 38,29 C38.553,29 39,28.553 39,28 C39,27.448 38.553,27 38,27 L38,27 Z M27.578,31 C27.761,30.355 27.888,29.687 27.949,29 L6.051,29 C6.112,29.687 6.239,30.355 6.422,31 L27.578,31 L27.578,31 Z M40,11 L10,11 L10,6.816 C11.162,6.403 12,5.305 12,4 C12,2.343 10.656,1 9,1 C7.344,1 6,2.343 6,4 C6,5.305 6.838,6.403 8,6.816 L8,11 L4,11 C1.791,11 0,12.791 0,15 L0,41 C0,43.209 1.791,45 4,45 L40,45 C42.209,45 44,43.209 44,41 L44,15 C44,12.791 42.209,11 40,11 L40,11 Z M32,43 L4,43 C2.895,43 2,42.104 2,41 L2,15 C2,13.896 2.895,13 4,13 L32,13 L32,43 L32,43 Z M42,41 C42,42.104 41.104,43 40,43 L34,43 L34,13 L40,13 C41.104,13 42,13.896 42,15 L42,41 L42,41 Z M38,33 C37.447,33 37,33.447 37,34 C37,34.552 37.447,35 38,35 C38.553,35 39,34.552 39,34 C39,33.447 38.553,33 38,33 L38,33 Z" id="Imported-Layers"></path>
                </g>
            </g>
        </g>
    </g>
</svg>