<?xml version="1.0" encoding="utf-8"?>
<!-- Generator: Adobe Illustrator 16.0.0, SVG Export Plug-In . SVG Version: 6.00 Build 0)  -->
<!DOCTYPE svg PUBLIC "-//W3C//DTD SVG 1.1//EN" "http://www.w3.org/Graphics/SVG/1.1/DTD/svg11.dtd">
<svg version="1.1" id="Layer_1" xmlns="http://www.w3.org/2000/svg" xmlns:xlink="http://www.w3.org/1999/xlink" x="0px" y="0px"
	 width="576.5px" height="289.5px" viewBox="0 0 576.5 289.5" enable-background="new 0 0 576.5 289.5" xml:space="preserve">
<g>
	<radialGradient id="SVGID_1_" cx="260.4248" cy="83.9512" r="514.5569" gradientUnits="userSpaceOnUse">
		<stop  offset="0.1237" style="stop-color:#FFFFFF"/>
		<stop  offset="0.3568" style="stop-color:#F8F8F8"/>
		<stop  offset="0.6848" style="stop-color:#E6E6E6"/>
		<stop  offset="1" style="stop-color:#CECECE"/>
	</radialGradient>
	<rect x="0" y="1.5" fill="url(#SVGID_1_)" width="576" height="288"/>
	<g>
		<defs>
			<rect id="SVGID_2_" x="0.5" width="576" height="288"/>
		</defs>
		<clipPath id="SVGID_3_">
			<use xlink:href="#SVGID_2_"  overflow="visible"/>
		</clipPath>
		<g clip-path="url(#SVGID_3_)">
			<g>
				<g id="triangle36_1455_">
					<path fill="#C4C4C4" d="M602.175-49.486l-56.044-30.974l15.113-13.529l41.004,30.145l0.004-0.581L561.369-94.48
						c-0.09-0.066-0.213-0.06-0.296,0.014l-15.501,13.877c-0.057,0.051-0.085,0.126-0.076,0.201
						c0.008,0.076,0.053,0.143,0.119,0.179l56.557,31.257L602.175-49.486z"/>
				</g>
				<g id="triangle36_1454_">
					<path fill="#C4C4C4" d="M601.959-7.105l-55.366-72.563l55.579,30.717l0.003-0.535l-56.333-31.133
						c-0.097-0.055-0.219-0.033-0.29,0.052c-0.073,0.084-0.077,0.208-0.009,0.296l56.412,73.935L601.959-7.105z"/>
				</g>
				<g id="triangle36_1451_">
					<path fill="#C4C4C4" d="M373.459,339.307l75.392-33.993l7.39,34.415l0.48,0.003l-7.473-34.801
						c-0.014-0.069-0.06-0.128-0.123-0.16s-0.139-0.034-0.202-0.005l-76.593,34.535L373.459,339.307z"/>
				</g>
				<g id="triangle36_1439_">
					<polygon fill="#C4C4C4" points="600.268,324.413 550.808,340.212 552.326,340.219 600.264,324.906 					"/>
				</g>
				<g id="triangle36_1423_">
					<path fill="#C4C4C4" d="M602.252-64.425l-40.338-29.654l40.495-1.344l0.003-0.47l-41.19,1.367
						c-0.1,0.004-0.187,0.07-0.216,0.166s0.005,0.199,0.085,0.258l41.157,30.258L602.252-64.425z"/>
				</g>
				<g id="triangle36_1422_">
					<path fill="#C4C4C4" d="M601.389,104.511l-54.588-3.218l44.104-26.744l10.595,8.25l0.003-0.592l-10.437-8.127
						c-0.077-0.059-0.182-0.065-0.266-0.015l-44.888,27.218c-0.088,0.054-0.13,0.158-0.105,0.257s0.111,0.171,0.213,0.177
						l55.366,3.265L601.389,104.511z"/>
				</g>
				<g id="triangle36_1420_">
					<path fill="#C4C4C4" d="M196.296,338.402l8.992-15.336l1.813,15.391l0.473,0.003l-1.901-16.143
						c-0.012-0.101-0.086-0.182-0.185-0.202c-0.098-0.021-0.199,0.023-0.251,0.111l-9.483,16.173L196.296,338.402z"/>
				</g>
				<g id="triangle36_1419_">
					<polygon fill="#C4C4C4" points="600.268,324.413 550.808,340.212 552.326,340.219 600.264,324.906 					"/>
					<path fill="#C4C4C4" d="M600.279,321.861l-51.854-12.881c-0.125-0.027-0.252,0.046-0.283,0.171l-7.848,31.007l0.483,0.002
						l7.761-30.667l51.738,12.852L600.279,321.861z"/>
				</g>
				<g id="triangle36_1418_">
					<path fill="#C4C4C4" d="M600.828,214.434l-28.33,16.26l-21.396-5.717l49.769-19.058l0.003-0.503l-50.616,19.382
						c-0.094,0.036-0.155,0.13-0.149,0.23c0.005,0.103,0.075,0.188,0.173,0.215l22.189,5.929c0.02,0.005,0.04,0.008,0.06,0.008
						c0.041,0,0.081-0.01,0.118-0.031l28.177-16.172L600.828,214.434z"/>
				</g>
				<g id="triangle36_1417_">
					<path fill="#C4C4C4" d="M456.721,339.731l-7.384-34.39l28.617,10.154l-12.361,24.28l0.524,0.003l12.376-24.309
						c0.031-0.061,0.034-0.131,0.009-0.193c-0.025-0.063-0.075-0.112-0.139-0.135l-29.266-10.384
						c-0.078-0.029-0.169-0.011-0.233,0.045c-0.063,0.056-0.093,0.143-0.074,0.226l7.45,34.699L456.721,339.731z"/>
				</g>
				<g id="triangle36_1416_">
					<path fill="#C4C4C4" d="M466.117,339.779l12.188-23.94l15.163,24.08l0.557,0.003l-15.543-24.684
						c-0.045-0.071-0.125-0.121-0.209-0.109c-0.084,0.004-0.16,0.053-0.198,0.129l-12.482,24.519L466.117,339.779z"/>
				</g>
				<g id="triangle36_1415_">
					<path fill="#C4C4C4" d="M493.469,339.919l0.557,0.003l-15.117-24.006l51.664,24.192l1.119,0.006l-53.308-24.963
						c-0.095-0.045-0.206-0.021-0.275,0.058c-0.069,0.078-0.078,0.191-0.022,0.279L493.469,339.919z"/>
				</g>
				<g id="triangle36_1414_">
					<path fill="#C4C4C4" d="M478.185,315.576l52.387,24.532l1.119,0.006l-52.517-24.593l68.887-6.05l-7.766,30.687l0.483,0.002
						l7.818-30.895c0.019-0.073,0.001-0.151-0.049-0.209c-0.049-0.059-0.126-0.086-0.198-0.082l-70.086,6.155
						c-0.105,0.01-0.191,0.089-0.211,0.192C478.035,315.428,478.089,315.531,478.185,315.576z"/>
				</g>
				<g id="triangle36_1412_">
					<path fill="#C4C4C4" d="M207.573,338.46l-1.843-15.647l24.372,15.763l0.871,0.004l-25.407-16.431
						c-0.076-0.05-0.174-0.051-0.251-0.003c-0.077,0.048-0.12,0.137-0.109,0.227l1.895,16.085L207.573,338.46z"/>
				</g>
				<g id="triangle36_1411_">
					<path fill="#C4C4C4" d="M363.245,180.335c-0.041-0.001-0.081-0.011-0.117-0.032c-0.058-0.033-0.099-0.09-0.112-0.155
						l-2.408-11.643c-0.014-0.064,0.001-0.132,0.039-0.185c0.039-0.054,0.098-0.089,0.163-0.096l59.597-6.906
						c0.127-0.019,0.231,0.065,0.257,0.183c0.025,0.118-0.043,0.236-0.157,0.273l-57.188,18.549
						C363.295,180.331,363.27,180.335,363.245,180.335z M361.119,168.661l2.304,11.135l54.694-17.74L361.119,168.661z"/>
				</g>
				<g id="triangle36_1409_">
					<path fill="#C4C4C4" d="M174.264,338.29l3.074-33.595l27.785,17.726l-9.369,15.979l0.542,0.003l9.345-15.938
						c0.064-0.108,0.03-0.249-0.076-0.317l-28.3-18.055c-0.069-0.043-0.157-0.048-0.23-0.013c-0.073,0.036-0.123,0.108-0.13,0.189
						l-3.112,34.019L174.264,338.29z"/>
				</g>
				<g id="triangle36_1408_">
					<path fill="#C4C4C4" d="M205.438,322.58c-0.044-0.001-0.087-0.014-0.125-0.037l-28.3-18.055
						c-0.066-0.043-0.107-0.114-0.109-0.193c-0.001-0.078,0.036-0.152,0.1-0.196l48.316-33.946c0.084-0.06,0.199-0.057,0.279,0.007
						c0.082,0.063,0.112,0.173,0.075,0.269l-20.016,52.001c-0.025,0.066-0.079,0.117-0.146,0.14
						C205.488,322.576,205.463,322.58,205.438,322.58z M177.561,304.281l27.763,17.711l19.636-51.013L177.561,304.281z"/>
				</g>
				<g id="triangle36_1407_">
					<path fill="#C4C4C4" d="M291.224,323.947c-0.001,0-0.001,0-0.002,0l-85.787-1.367c-0.077-0.002-0.147-0.04-0.19-0.104
						c-0.043-0.064-0.052-0.145-0.025-0.216l20.017-52.001c0.027-0.07,0.086-0.123,0.158-0.143c0.073-0.02,0.15-0.003,0.209,0.045
						l65.77,53.369c0.078,0.063,0.107,0.168,0.072,0.262C291.412,323.887,291.323,323.948,291.224,323.947z M205.779,322.115
						l84.771,1.353l-64.993-52.738L205.779,322.115z"/>
				</g>
				<g id="triangle36_1406_">
					<path fill="#C4C4C4" d="M230.102,338.575l0.871,0.004l-24.719-15.986l84.084,1.341l-26.888,14.812l0.964,0.005l26.923-14.832
						c0.094-0.051,0.141-0.158,0.115-0.262s-0.117-0.176-0.225-0.178l-85.786-1.368h-0.002c-0.104-0.001-0.196,0.067-0.226,0.167
						s0.009,0.207,0.097,0.265L230.102,338.575z"/>
				</g>
				<g id="triangle36_1405_">
					<path fill="#C4C4C4" d="M264.415,338.75l26.146-14.402l-8.902,14.49l0.549,0.003l9.219-15.005
						c0.055-0.091,0.043-0.208-0.031-0.285c-0.072-0.077-0.189-0.096-0.282-0.043l-27.661,15.237L264.415,338.75z"/>
				</g>
				<g id="triangle36_1404_">
					<path fill="#C4C4C4" d="M282.207,338.841l9.124-14.853l51.954,15.164l1.703,0.009l-53.697-15.673
						c-0.104-0.033-0.211,0.012-0.266,0.102l-9.368,15.248L282.207,338.841z"/>
				</g>
				<g id="triangle36_1382_">
					<path fill="#C4C4C4" d="M519.601,201.602c-0.028,0-0.058-0.006-0.086-0.017l-99.169-39.816c-0.076-0.03-0.131-0.1-0.145-0.182
						c-0.012-0.081,0.019-0.164,0.083-0.217l50.206-41.38c0.053-0.044,0.121-0.063,0.188-0.05c0.067,0.011,0.126,0.051,0.161,0.11
						l48.963,81.196c0.053,0.086,0.043,0.195-0.021,0.273C519.734,201.573,519.669,201.602,519.601,201.602z M420.888,161.48
						l98.151,39.408l-48.461-80.363L420.888,161.48z"/>
				</g>
				<g id="triangle36_1381_">
					<path fill="#C4C4C4" d="M519.601,201.602c-0.08,0-0.156-0.042-0.199-0.113l-48.963-81.196
						c-0.034-0.058-0.043-0.127-0.022-0.191c0.02-0.064,0.066-0.117,0.127-0.144l41.14-18.397c0.068-0.032,0.149-0.027,0.215,0.012
						c0.065,0.04,0.108,0.107,0.114,0.184l7.824,99.594c0.009,0.108-0.059,0.208-0.162,0.242
						C519.65,201.598,519.625,201.602,519.601,201.602z M470.977,120.277l48.313,80.119l-7.72-98.272L470.977,120.277z"/>
				</g>
				<g id="triangle36_1380_">
					<path fill="#C4C4C4" d="M519.601,201.602c-0.006,0-0.013,0-0.02-0.001c-0.114-0.01-0.204-0.102-0.213-0.215l-7.824-99.594
						c-0.005-0.065,0.017-0.129,0.062-0.177c0.043-0.048,0.105-0.076,0.171-0.076l34.257-0.291c0.049,0.011,0.143,0.033,0.188,0.091
						c0.044,0.058,0.06,0.133,0.041,0.204l-26.433,99.884C519.802,201.531,519.707,201.603,519.601,201.602z M512.031,102.006
						l7.696,97.968l26.002-98.253L512.031,102.006z"/>
				</g>
				<g id="triangle36_1379_">
					<path fill="#C4C4C4" d="M600.874,205.416l-50.493,19.334l-30.172-23.212l80.729-8.651l0.002-0.473l-81.363,8.72
						c-0.096,0.011-0.175,0.077-0.201,0.17c-0.025,0.092,0.007,0.19,0.083,0.249l30.74,23.649c0.041,0.032,0.092,0.049,0.142,0.049
						c0.029,0,0.058-0.005,0.086-0.016l50.444-19.316L600.874,205.416z"/>
				</g>
				<g id="triangle36_1378_">
					<path fill="#C4C4C4" d="M511.777,102.008c-0.096,0-0.181-0.058-0.217-0.146c-0.036-0.089-0.015-0.191,0.055-0.257
						l34.113-32.623c0.069-0.065,0.169-0.083,0.255-0.046c0.086,0.037,0.142,0.121,0.143,0.215l0.144,32.333
						c0.001,0.129-0.104,0.235-0.232,0.236l-34.257,0.29C511.779,102.008,511.777,102.008,511.777,102.008z M545.659,69.697
						l-33.291,31.837l33.431-0.284L545.659,69.697z"/>
				</g>
				<g id="triangle36_1377_">
					<path fill="#C4C4C4" d="M601.709,41.873l-55.584,26.903l-0.161-148.495l55.991,73.381l0.004-0.769l-56.044-73.45
						c-0.061-0.08-0.167-0.112-0.262-0.08c-0.095,0.032-0.159,0.121-0.159,0.222l0.162,149.564c0,0.081,0.042,0.156,0.11,0.199
						c0.038,0.024,0.08,0.036,0.124,0.036c0.035,0,0.07-0.007,0.103-0.023l55.713-26.966L601.709,41.873z"/>
				</g>
				<g id="triangle36_1376_">
					<path fill="#C4C4C4" d="M546.033,101.718c-0.039,0-0.078-0.01-0.113-0.03c-0.073-0.041-0.119-0.119-0.119-0.203l-0.145-32.333
						c0-0.067,0.029-0.131,0.078-0.175c0.051-0.045,0.118-0.064,0.184-0.059l45.03,5.114c0.1,0.012,0.182,0.085,0.203,0.183
						s-0.022,0.199-0.107,0.25l-44.888,27.219C546.119,101.707,546.076,101.718,546.033,101.718z M546.127,69.413l0.141,31.654
						l43.945-26.647L546.127,69.413z"/>
				</g>
				<g id="triangle36_1375_">
					<path fill="#C4C4C4" d="M601.61,61.195l-10.787,12.822l-44.101-5.008l54.983-26.613l0.003-0.523l-55.92,27.066
						c-0.094,0.046-0.146,0.148-0.129,0.251s0.101,0.182,0.205,0.194l45.03,5.114c0.009,0,0.017,0.001,0.025,0.001
						c0.069,0,0.136-0.03,0.181-0.083l10.505-12.487L601.61,61.195z"/>
				</g>
				<g id="triangle36_1374_">
					<path fill="#C4C4C4" d="M601.518,79.271l-10.225-5.084l10.313-12.258l0.004-0.734l-10.868,12.918
						c-0.047,0.055-0.064,0.128-0.051,0.199c0.016,0.07,0.062,0.13,0.126,0.162l10.698,5.32L601.518,79.271z"/>
				</g>
				<g id="triangle36_1373_">
					<path fill="#C4C4C4" d="M601.503,82.206l-8.593-6.69l8.605,4.279l0.002-0.523l-10.491-5.217
						c-0.108-0.053-0.238-0.016-0.304,0.085c-0.063,0.102-0.04,0.236,0.055,0.311l10.723,8.348L601.503,82.206z"/>
				</g>
				<g id="triangle36_1366_">
					<path fill="#C4C4C4" d="M291.159,323.938l52.126,15.214l1.703,0.009l-53.133-15.509l94.252-48.517l-22.77,64.119l0.496,0.003
						l22.914-64.523c0.032-0.091,0.006-0.192-0.067-0.256c-0.072-0.063-0.176-0.075-0.262-0.031l-95.302,49.057
						c-0.084,0.045-0.135,0.136-0.125,0.231C291.001,323.831,291.067,323.912,291.159,323.938z"/>
				</g>
				<g id="triangle36_1365_">
					<path fill="#C4C4C4" d="M363.834,339.258l22.826-64.277l61.806,29.992l-76.136,34.328l1.129,0.006l75.656-34.112
						c0.084-0.038,0.138-0.12,0.139-0.211c0.002-0.091-0.051-0.175-0.132-0.215l-62.493-30.324c-0.061-0.028-0.129-0.03-0.191-0.007
						c-0.062,0.025-0.109,0.076-0.132,0.14l-22.968,64.678L363.834,339.258z"/>
				</g>
				<g id="triangle36_1363_">
					<path fill="#C4C4C4" d="M390.606,200.943c-0.05,0-0.099-0.017-0.14-0.047l-27.361-20.609c-0.094-0.069-0.121-0.196-0.065-0.299
						s0.179-0.148,0.286-0.108l43.434,15.806c0.095,0.034,0.157,0.126,0.154,0.227c-0.003,0.102-0.07,0.189-0.168,0.219
						l-16.072,4.803C390.652,200.94,390.629,200.943,390.606,200.943z M364.643,180.857l26.011,19.593l15.28-4.565L364.643,180.857z
						"/>
				</g>
				<g id="triangle36_1362_">
					<path fill="#C4C4C4" d="M406.679,196.141c-0.026,0-0.054-0.005-0.079-0.014l-43.434-15.807
						c-0.094-0.034-0.156-0.124-0.154-0.225c0.002-0.1,0.066-0.188,0.162-0.219l57.188-18.549c0.084-0.03,0.181-0.004,0.243,0.063
						c0.063,0.066,0.081,0.163,0.047,0.248l-13.755,34.354C406.86,196.085,406.771,196.141,406.679,196.141z M363.968,180.113
						l42.579,15.494l13.482-33.679L363.968,180.113z"/>
				</g>
				<g id="triangle36_1361_">
					<path fill="#C4C4C4" d="M386.525,274.89c-0.012,0-0.022-0.001-0.034-0.003c-0.12-0.018-0.206-0.124-0.198-0.244l4.08-73.947
						c0.006-0.098,0.072-0.184,0.167-0.211l16.072-4.804c0.08-0.024,0.169-0.003,0.229,0.056c0.062,0.059,0.086,0.146,0.065,0.228
						l-20.153,78.749C386.727,274.819,386.632,274.891,386.525,274.89z M390.832,200.887l-3.939,71.392l19.457-76.028
						L390.832,200.887z"/>
				</g>
				<g id="triangle36_1360_">
					<path fill="#C4C4C4" d="M519.601,201.602c-0.003,0-0.007,0-0.01,0l-112.923-5.461c-0.076-0.004-0.145-0.044-0.186-0.107
						c-0.041-0.064-0.049-0.145-0.021-0.215l13.754-34.354c0.023-0.058,0.068-0.104,0.125-0.129c0.058-0.024,0.122-0.024,0.18-0.001
						l99.169,39.815c0.106,0.042,0.166,0.155,0.142,0.268C519.808,201.525,519.711,201.603,519.601,201.602z M407.02,195.688
						l111.201,5.378l-97.657-39.209L407.02,195.688z"/>
				</g>
				<g id="triangle36_1359_">
					<path fill="#C4C4C4" d="M420.432,161.786c-0.028-0.001-0.057-0.006-0.085-0.017c-0.079-0.031-0.136-0.104-0.146-0.188
						L408.623,71.97c-0.013-0.094,0.033-0.187,0.116-0.233c0.082-0.048,0.185-0.041,0.261,0.019l61.783,48.231
						c0.057,0.044,0.09,0.11,0.091,0.182c0.001,0.071-0.03,0.139-0.085,0.184l-50.206,41.38
						C420.539,161.768,420.486,161.786,420.432,161.786z M409.161,72.477l11.45,88.624l49.653-40.924L409.161,72.477z"/>
				</g>
				<g id="triangle36_1358_">
					<path fill="#C4C4C4" d="M470.638,120.406c-0.051,0-0.101-0.017-0.143-0.05l-61.784-48.231
						c-0.064-0.051-0.099-0.132-0.089-0.213c0.011-0.082,0.063-0.152,0.138-0.186l53.82-24.148c0.068-0.032,0.147-0.027,0.213,0.01
						s0.108,0.104,0.117,0.178l7.963,72.38c0.01,0.094-0.037,0.185-0.119,0.23C470.718,120.396,470.678,120.406,470.638,120.406z
						 M409.307,71.995l61.038,47.649l-7.866-71.506L409.307,71.995z"/>
				</g>
				<g id="triangle36_1357_">
					<path fill="#C4C4C4" d="M462.675,48.026c-0.013,0-0.025-0.001-0.038-0.003c-0.093-0.016-0.166-0.085-0.188-0.177
						L436.761-58.817c-0.015-0.062-0.004-0.127,0.03-0.181c0.034-0.054,0.09-0.091,0.152-0.104l108.74-21.542
						c0.091-0.018,0.188,0.021,0.239,0.099c0.054,0.077,0.054,0.18,0.003,0.259L462.873,47.919
						C462.829,47.987,462.754,48.026,462.675,48.026z M437.274-58.689l25.502,105.895L545.23-80.076L437.274-58.689z"/>
				</g>
				<g id="triangle36_1356_">
					<path fill="#C4C4C4" d="M470.638,120.406c-0.04,0-0.079-0.01-0.115-0.031c-0.065-0.037-0.108-0.104-0.116-0.178l-7.963-72.38
						c-0.012-0.102,0.044-0.198,0.137-0.24c0.092-0.042,0.201-0.019,0.27,0.056l49.102,53.982c0.051,0.055,0.071,0.132,0.057,0.206
						c-0.016,0.074-0.065,0.136-0.135,0.166l-41.139,18.398C470.704,120.399,470.671,120.406,470.638,120.406z M462.988,48.483
						l7.849,71.342l40.55-18.134L462.988,48.483z"/>
				</g>
				<g id="triangle36_1355_">
					<path fill="#C4C4C4" d="M511.777,102.008c-0.003,0-0.005,0-0.008,0c-0.063-0.002-0.123-0.03-0.165-0.077l-49.102-53.982
						c-0.069-0.076-0.081-0.189-0.027-0.279c0.054-0.088,0.157-0.132,0.259-0.106l83.215,21.359c0.083,0.021,0.147,0.086,0.17,0.168
						c0.021,0.083-0.004,0.17-0.065,0.229l-34.113,32.623C511.896,101.985,511.838,102.008,511.777,102.008z M463.378,48.214
						l48.412,53.224l33.634-32.165L463.378,48.214z"/>
				</g>
				<g id="triangle36_1353_">
					<path fill="#C4C4C4" d="M545.891,69.385c-0.02,0-0.039-0.002-0.058-0.007l-83.215-21.359c-0.073-0.019-0.133-0.072-0.16-0.142
						c-0.028-0.07-0.02-0.149,0.021-0.213l83.052-128.205c0.057-0.088,0.162-0.127,0.264-0.098c0.1,0.029,0.169,0.121,0.168,0.225
						l0.163,149.564c0,0.072-0.033,0.141-0.091,0.186C545.993,69.368,545.941,69.386,545.891,69.385z M463.051,47.646l82.605,21.202
						l-0.161-148.469L463.051,47.646z"/>
				</g>
				<g id="triangle36_1343_">
					<path fill="#C4C4C4" d="M386.525,274.89c-0.063,0-0.125-0.026-0.17-0.073c-0.055-0.059-0.076-0.142-0.057-0.219l20.153-78.75
						c0.019-0.074,0.073-0.135,0.145-0.162c0.073-0.026,0.154-0.017,0.216,0.027l85.492,59.053c0.078,0.054,0.115,0.148,0.096,0.241
						s-0.094,0.165-0.187,0.183l-105.645,19.696C386.555,274.889,386.54,274.891,386.525,274.89z M406.823,196.29l-19.978,78.067
						l104.729-19.526L406.823,196.29z"/>
				</g>
				<g id="triangle36_1342_">
					<path fill="#C4C4C4" d="M449.019,305.215c-0.034,0-0.069-0.008-0.102-0.023l-62.493-30.324
						c-0.091-0.045-0.144-0.143-0.13-0.243s0.09-0.181,0.19-0.199l105.644-19.697c0.099-0.018,0.196,0.027,0.247,0.114
						c0.049,0.086,0.039,0.194-0.026,0.27l-43.151,50.021C449.151,305.187,449.085,305.215,449.019,305.215z M387.271,274.756
						l61.688,29.935l42.598-49.379L387.271,274.756z"/>
				</g>
				<g id="triangle36_1341_">
					<path fill="#C4C4C4" d="M492.17,255.193c-0.047-0.001-0.093-0.016-0.132-0.042L406.546,196.1
						c-0.086-0.061-0.122-0.17-0.089-0.27c0.033-0.099,0.135-0.16,0.233-0.158l112.923,5.461c0.08,0.004,0.152,0.048,0.192,0.116
						c0.039,0.069,0.041,0.154,0.005,0.225l-27.431,53.592c-0.03,0.06-0.086,0.104-0.151,0.12
						C492.209,255.191,492.189,255.193,492.17,255.193z M407.489,196.18l84.595,58.434l27.144-53.029L407.489,196.18z"/>
				</g>
				<g id="triangle36_1340_">
					<path fill="#C4C4C4" d="M478.283,315.599c-0.026,0-0.053-0.005-0.078-0.014l-29.265-10.384
						c-0.072-0.025-0.128-0.086-0.147-0.161c-0.021-0.074-0.002-0.154,0.049-0.213l43.152-50.022
						c0.069-0.082,0.187-0.104,0.283-0.056c0.096,0.049,0.146,0.157,0.123,0.262l-13.888,60.405
						c-0.015,0.065-0.058,0.121-0.115,0.153C478.361,315.589,478.322,315.599,478.283,315.599z M449.421,304.873l28.693,10.182
						l13.616-59.227L449.421,304.873z"/>
				</g>
				<g id="triangle36_1339_">
					<path fill="#C4C4C4" d="M478.283,315.599c-0.066-0.001-0.132-0.03-0.176-0.081c-0.05-0.057-0.068-0.133-0.052-0.206
						l13.887-60.405c0.019-0.083,0.081-0.149,0.162-0.173c0.081-0.022,0.169-0.003,0.229,0.056l56.199,54.251
						c0.065,0.063,0.088,0.16,0.058,0.247s-0.109,0.147-0.201,0.155l-70.085,6.155C478.298,315.598,478.29,315.599,478.283,315.599z
						 M492.307,255.416l-13.721,59.686l69.25-6.082L492.307,255.416z"/>
				</g>
				<g id="triangle36_1338_">
					<path fill="#C4C4C4" d="M492.17,255.193c-0.061-0.001-0.12-0.024-0.164-0.069c-0.072-0.071-0.09-0.182-0.044-0.272
						l27.431-53.592c0.032-0.062,0.09-0.106,0.158-0.122s0.139,0.001,0.194,0.044l30.74,23.649c0.063,0.049,0.099,0.127,0.091,0.207
						c-0.008,0.079-0.055,0.15-0.127,0.187l-58.171,29.942C492.244,255.185,492.207,255.193,492.17,255.193z M519.682,201.725
						l-26.969,52.691l57.193-29.439L519.682,201.725z"/>
				</g>
				<g id="triangle36_1337_">
					<path fill="#C4C4C4" d="M548.368,309.443c-0.06,0-0.118-0.023-0.162-0.066l-56.198-54.25c-0.06-0.059-0.084-0.144-0.064-0.225
						c0.02-0.08,0.081-0.146,0.16-0.169l80.36-24.014c0.083-0.024,0.173-0.002,0.234,0.06s0.083,0.152,0.058,0.235l-24.162,78.264
						c-0.024,0.077-0.087,0.138-0.166,0.157C548.408,309.441,548.388,309.443,548.368,309.443z M492.623,255.068l55.635,53.707
						l23.92-77.48L492.623,255.068z"/>
				</g>
				<g id="triangle36_1336_">
					<path fill="#C4C4C4" d="M492.17,255.193c-0.093-0.001-0.18-0.057-0.217-0.147c-0.045-0.112,0.003-0.241,0.11-0.296
						l58.171-29.942c0.053-0.026,0.11-0.032,0.169-0.018l22.188,5.929c0.102,0.027,0.173,0.117,0.174,0.223
						c0.002,0.105-0.066,0.198-0.167,0.229l-80.36,24.014C492.216,255.189,492.192,255.193,492.17,255.193z M550.369,225.267
						l-55.841,28.743l77.142-23.053L550.369,225.267z"/>
				</g>
				<g id="triangle36_1324_">
					<path fill="#C4C4C4" d="M145.142,285.056c-0.096-0.001-0.185-0.061-0.219-0.153c-0.04-0.106,0.003-0.227,0.101-0.283
						l66.55-38.971c0.055-0.031,0.121-0.039,0.18-0.023c0.061,0.016,0.112,0.057,0.144,0.111l13.762,24.493
						c0.038,0.065,0.04,0.146,0.008,0.215c-0.033,0.068-0.096,0.117-0.171,0.131l-80.312,14.477
						C145.17,285.055,145.156,285.056,145.142,285.056z M211.605,246.174l-65.203,38.182l78.687-14.184L211.605,246.174z"/>
				</g>
				<g id="triangle36_1322_">
					<path fill="#C4C4C4" d="M225.454,270.579c-0.007,0-0.014-0.001-0.021-0.001c-0.077-0.008-0.145-0.052-0.183-0.119
						l-13.763-24.493c-0.037-0.065-0.04-0.145-0.009-0.213c0.032-0.068,0.094-0.117,0.167-0.132l41.087-8.165
						c0.096-0.019,0.197,0.025,0.247,0.111c0.051,0.085,0.042,0.193-0.022,0.271l-27.324,32.657
						C225.59,270.549,225.524,270.579,225.454,270.579z M212.056,246.019l13.438,23.914l26.678-31.886L212.056,246.019z"/>
				</g>
				<g id="triangle36_1462_">
					<path fill="#C4C4C4" d="M341.716,105.56c-0.019,0-0.038-0.003-0.058-0.008c-0.125-0.032-0.201-0.161-0.168-0.286l12.906-49.711
						c0.032-0.125,0.158-0.202,0.285-0.168c0.126,0.032,0.201,0.16,0.169,0.286l-12.907,49.711
						C341.916,105.49,341.82,105.56,341.716,105.56z"/>
				</g>
				<g id="triangle36_1316_">
					<path fill="#C4C4C4" d="M341.716,105.56c-0.053,0-0.104-0.019-0.147-0.053c-0.07-0.058-0.102-0.152-0.078-0.241l12.906-49.711
						c0.016-0.062,0.057-0.114,0.112-0.146s0.122-0.038,0.183-0.021l54.231,16.327c0.092,0.027,0.158,0.109,0.166,0.205
						c0.009,0.096-0.043,0.188-0.129,0.23l-67.139,33.385C341.787,105.552,341.752,105.56,341.716,105.56z M354.789,55.909
						l-12.716,48.977l66.147-32.892L354.789,55.909z"/>
				</g>
				<g id="triangle36_1315_">
					<path fill="#C4C4C4" d="M360.836,168.692c-0.102-0.001-0.193-0.067-0.224-0.167l-19.12-63.133
						c-0.029-0.096,0.006-0.2,0.088-0.258c0.081-0.059,0.191-0.06,0.273,0l78.716,56.227c0.079,0.057,0.115,0.155,0.091,0.249
						c-0.023,0.095-0.104,0.164-0.199,0.175l-59.597,6.906C360.854,168.691,360.845,168.692,360.836,168.692z M342.141,105.916
						l18.864,62.285l58.797-6.813L342.141,105.916z"/>
				</g>
				<g id="triangle36_1314_">
					<path fill="#C4C4C4" d="M420.432,161.786c-0.047-0.001-0.094-0.015-0.135-0.044l-78.717-56.227
						c-0.066-0.048-0.104-0.128-0.098-0.209c0.007-0.082,0.057-0.155,0.13-0.191l67.139-33.385c0.067-0.035,0.147-0.033,0.215,0.003
						s0.112,0.102,0.122,0.177l11.578,89.611c0.012,0.092-0.032,0.183-0.112,0.23C420.517,161.774,420.475,161.786,420.432,161.786z
						 M342.172,105.361l77.96,55.686l-11.468-88.75L342.172,105.361z"/>
				</g>
				<g id="triangle36_1165_">
					<path fill="#C4C4C4" d="M319.874,212.91c-0.063,0-0.128-0.026-0.173-0.077c-0.082-0.091-0.08-0.228,0.002-0.317l40.962-44.218
						c0.06-0.064,0.149-0.091,0.235-0.066c0.084,0.023,0.148,0.093,0.166,0.179l2.41,11.643c0.018,0.089-0.017,0.181-0.089,0.235
						l-43.372,32.575C319.974,212.896,319.924,212.91,319.874,212.91z M360.699,168.951l-38.879,41.97l41.166-30.919
						L360.699,168.951z"/>
				</g>
				<g id="triangle36_1164_">
					<path fill="#C4C4C4" d="M319.874,212.91c-0.093,0-0.178-0.055-0.215-0.142c-0.042-0.1-0.012-0.216,0.075-0.28l43.371-32.576
						c0.084-0.062,0.199-0.062,0.282,0l27.36,20.609c0.075,0.057,0.109,0.152,0.088,0.243c-0.022,0.091-0.098,0.159-0.189,0.175
						l-70.732,11.967C319.9,212.909,319.887,212.91,319.874,212.91z M363.246,180.394l-42.458,31.89l69.243-11.715L363.246,180.394z
						"/>
				</g>
				<g id="triangle36_1160_">
					<path fill="#C4C4C4" d="M386.525,274.89c-0.058,0-0.114-0.021-0.158-0.063l-66.652-61.979c-0.064-0.061-0.09-0.153-0.064-0.239
						c0.025-0.085,0.098-0.149,0.186-0.164l70.732-11.967c0.068-0.014,0.143,0.009,0.195,0.056c0.053,0.049,0.082,0.117,0.078,0.188
						l-4.081,73.946c-0.005,0.092-0.062,0.171-0.146,0.205C386.586,274.885,386.556,274.891,386.525,274.89z M320.383,212.828
						l65.938,61.314l4.037-73.153L320.383,212.828z"/>
				</g>
				<g id="triangle36_1159_">
					<path fill="#C4C4C4" d="M601.158,149.756l-81.177,51.096l26.211-99.047l55.092,23.273l0.003-0.508l-55.16-23.303
						c-0.063-0.026-0.135-0.024-0.195,0.006c-0.062,0.03-0.106,0.085-0.124,0.151l-26.433,99.883
						c-0.024,0.094,0.011,0.192,0.088,0.249c0.041,0.03,0.09,0.046,0.138,0.046c0.044,0,0.088-0.012,0.126-0.036l81.429-51.253
						L601.158,149.756z"/>
				</g>
				<g id="triangle36_1158_">
					<path fill="#C4C4C4" d="M600.94,192.414l-80.355,8.611l80.57-50.713l0.003-0.556l-81.682,51.411
						c-0.092,0.059-0.132,0.173-0.096,0.275c0.032,0.096,0.121,0.158,0.22,0.158c0.009,0,0.018,0,0.026-0.001l81.312-8.714
						L600.94,192.414z"/>
				</g>
				<g id="triangle36_1153_">
					<path fill="#C4C4C4" d="M601.287,124.569l-53.904-22.772l54.004,3.184l0.002-0.47l-55.34-3.263
						c-0.128-0.01-0.217,0.069-0.242,0.181c-0.026,0.111,0.031,0.225,0.137,0.27l55.341,23.378L601.287,124.569z"/>
				</g>
				<g id="triangle36_1145_">
					<path fill="#C4C4C4" d="M225.454,270.579c-0.073-0.001-0.144-0.035-0.188-0.097c-0.063-0.088-0.06-0.207,0.01-0.289
						l27.324-32.657c0.044-0.054,0.11-0.084,0.179-0.084l54.008-0.189c0.001,0,0.002,0,0.002,0c0.112,0,0.208,0.079,0.229,0.189
						s-0.039,0.221-0.143,0.263l-81.332,32.847C225.515,270.573,225.484,270.579,225.454,270.579z M252.89,237.921l-26.652,31.854
						l79.332-32.039L252.89,237.921z"/>
				</g>
				<g id="triangle36_1144_">
					<path fill="#C4C4C4" d="M291.224,323.947c-0.052,0-0.104-0.018-0.146-0.053l-65.77-53.368
						c-0.064-0.052-0.097-0.135-0.084-0.217c0.012-0.083,0.067-0.151,0.144-0.183l81.332-32.848
						c0.078-0.031,0.169-0.018,0.236,0.035c0.066,0.055,0.098,0.141,0.082,0.225l-15.562,86.215c-0.015,0.082-0.071,0.15-0.149,0.18
						C291.279,323.943,291.252,323.947,291.224,323.947z M225.912,270.412l65.152,52.868l15.416-85.406L225.912,270.412z"/>
				</g>
				<g id="triangle36_1142_">
					<path fill="#C4C4C4" d="M252.778,237.922c-0.113-0.001-0.21-0.082-0.229-0.193c-0.021-0.111,0.042-0.222,0.148-0.262
						l67.096-25.011c0.092-0.034,0.194-0.009,0.259,0.064c0.063,0.073,0.076,0.179,0.03,0.265l-13.088,24.821
						c-0.04,0.077-0.119,0.125-0.207,0.125l-54.007,0.19C252.779,237.922,252.778,237.922,252.778,237.922z M319.381,213.11
						l-65.288,24.337l52.552-0.185L319.381,213.11z"/>
				</g>
				<g id="triangle36_1141_">
					<path fill="#C4C4C4" d="M291.224,323.947c-0.049,0-0.097-0.016-0.138-0.046c-0.072-0.053-0.107-0.142-0.092-0.229
						l15.563-86.217c0.013-0.071,0.058-0.133,0.122-0.166s0.142-0.034,0.208-0.005l79.739,37.158
						c0.081,0.038,0.134,0.119,0.136,0.208c0.002,0.09-0.048,0.173-0.127,0.214l-95.303,49.058
						C291.299,323.939,291.261,323.948,291.224,323.947z M306.964,237.838l-15.423,85.449l94.453-48.621L306.964,237.838z"/>
				</g>
				<g id="triangle36_1140_">
					<path fill="#C4C4C4" d="M386.525,274.89c-0.033,0-0.066-0.007-0.098-0.021l-79.74-37.158c-0.058-0.027-0.103-0.077-0.123-0.138
						c-0.021-0.062-0.016-0.128,0.015-0.185l13.089-24.821c0.034-0.064,0.096-0.109,0.168-0.122c0.07-0.014,0.145,0.01,0.199,0.06
						l66.651,61.979c0.085,0.079,0.1,0.207,0.035,0.303C386.677,274.854,386.602,274.891,386.525,274.89z M307.109,237.389
						l78.168,36.426l-65.338-60.758L307.109,237.389z"/>
				</g>
				<g id="triangle36_1139_">
					<path fill="#C4C4C4" d="M600.691,241.184l-27.609-10.284l27.743-15.923l0.003-0.543l-28.414,16.308
						c-0.078,0.046-0.124,0.132-0.116,0.224c0.007,0.09,0.066,0.168,0.151,0.2l28.24,10.519L600.691,241.184z"/>
				</g>
				<g id="triangle36_1460_">
					<path fill="#C4C4C4" d="M354.622,55.848c-0.075,0-0.148-0.037-0.193-0.104c-0.072-0.107-0.044-0.254,0.064-0.326l54.191-36.242
						c0.106-0.072,0.253-0.043,0.325,0.064s0.043,0.253-0.064,0.325l-54.191,36.242C354.713,55.836,354.668,55.849,354.622,55.848z"
						/>
				</g>
				<g id="triangle36_1126_">
					<path fill="#C4C4C4" d="M408.854,72.174c-0.021,0-0.044-0.003-0.066-0.01l-54.231-16.326c-0.087-0.026-0.151-0.1-0.164-0.19
						c-0.014-0.09,0.026-0.179,0.102-0.23l54.191-36.242c0.071-0.048,0.164-0.053,0.241-0.012c0.076,0.041,0.123,0.12,0.123,0.207
						l0.041,52.568c0,0.074-0.035,0.145-0.095,0.188C408.954,72.159,408.904,72.175,408.854,72.174z M355.168,55.532l53.452,16.092
						l-0.04-51.813L355.168,55.532z"/>
				</g>
				<g id="triangle36_1121_">
					<path fill="#C4C4C4" d="M408.854,72.174c-0.043,0-0.088-0.013-0.126-0.038c-0.066-0.043-0.106-0.117-0.106-0.197l-0.041-52.568
						c0-0.082,0.043-0.159,0.113-0.201c0.07-0.043,0.157-0.046,0.23-0.007l53.862,28.42c0.079,0.042,0.128,0.125,0.125,0.215
						c-0.003,0.09-0.057,0.17-0.139,0.207l-53.821,24.148C408.92,72.168,408.887,72.175,408.854,72.174z M409.05,19.761l0.04,51.817
						l53.051-23.803L409.05,19.761z"/>
				</g>
				<g id="triangle36_1117_">
					<path fill="#C4C4C4" d="M462.675,48.026c-0.037,0-0.073-0.009-0.108-0.027l-53.861-28.42c-0.104-0.055-0.15-0.177-0.111-0.287
						l28.174-78.243c0.035-0.097,0.134-0.168,0.234-0.155c0.103,0.006,0.19,0.079,0.215,0.18l25.688,106.663
						c0.021,0.089-0.011,0.183-0.084,0.24C462.777,48.01,462.727,48.026,462.675,48.026z M409.104,19.26l53.222,28.082
						L436.944-58.055L409.104,19.26z"/>
				</g>
				<g id="triangle36_1116_">
					<path fill="#C4C4C4" d="M600.525,273.717l-51.734,34.925l23.832-77.196l27.935,35.944l0.004-0.761l-27.845-35.828
						c-0.053-0.068-0.138-0.103-0.228-0.087c-0.086,0.016-0.156,0.078-0.182,0.161l-24.162,78.264
						c-0.03,0.096,0.005,0.199,0.084,0.259c0.041,0.03,0.09,0.046,0.139,0.046c0.046,0,0.093-0.014,0.133-0.04l52.021-35.118
						L600.525,273.717z"/>
				</g>
				<g id="triangle36_1115_">
					<path fill="#C4C4C4" d="M600.279,321.862l-51.342-12.755l51.585-34.822l0.003-0.568l-52.287,35.297
						c-0.077,0.053-0.116,0.145-0.1,0.236c0.016,0.091,0.085,0.164,0.174,0.187l51.965,12.909L600.279,321.862z"/>
				</g>
				<g id="triangle36_1114_">
					<path fill="#C4C4C4" d="M600.562,266.629l-27.338-35.176l27.466,10.23l0.002-0.5l-28.078-10.459
						c-0.098-0.036-0.209-0.003-0.271,0.081c-0.062,0.085-0.061,0.2,0.004,0.283l28.212,36.301L600.562,266.629z"/>
				</g>
			</g>
			<g>
				<g>
					<circle fill="#C4C4C4" cx="561.229" cy="-94.291" r="2.447"/>
					<path fill="#231F20" d="M561.242-96.738c1.352,0.007,2.441,1.108,2.435,2.459s-1.107,2.441-2.46,2.435
						c-1.352-0.007-2.441-1.108-2.434-2.459C558.79-95.655,559.891-96.745,561.242-96.738 M561.247-97.677
						c-1.867-0.009-3.394,1.502-3.402,3.369c-0.01,1.867,1.501,3.393,3.368,3.403s3.394-1.501,3.402-3.368
						C564.625-96.141,563.114-97.667,561.247-97.677L561.247-97.677z"/>
				</g>
				<g>
					<circle fill="#C4C4C4" cx="177.139" cy="304.291" r="1.51"/>
					<path fill="#231F20" d="M177.147,302.78c0.833,0.004,1.506,0.684,1.502,1.518s-0.684,1.507-1.518,1.503
						c-0.834-0.005-1.506-0.685-1.502-1.519C175.633,303.448,176.313,302.775,177.147,302.78 M177.151,301.842
						c-1.35-0.007-2.454,1.086-2.461,2.436c-0.007,1.351,1.086,2.455,2.436,2.461c1.35,0.008,2.454-1.086,2.461-2.436
						C179.595,302.953,178.502,301.849,177.151,301.842L177.151,301.842z"/>
				</g>
				<g>
					<circle fill="#C4C4C4" cx="205.439" cy="322.345" r="2.091"/>
					<path fill="#231F20" d="M205.45,320.254c1.155,0.007,2.085,0.947,2.08,2.102s-0.946,2.086-2.101,2.08
						c-1.155-0.006-2.086-0.946-2.08-2.102C203.354,321.18,204.295,320.249,205.45,320.254 M205.455,319.316
						c-1.67-0.009-3.036,1.343-3.044,3.014c-0.009,1.67,1.343,3.035,3.014,3.044c1.67,0.009,3.036-1.343,3.044-3.014
						C208.477,320.69,207.125,319.324,205.455,319.316L205.455,319.316z"/>
				</g>
				<g>
					<circle fill="#C4C4C4" cx="590.921" cy="74.265" r="1.813"/>
					<path fill="#231F20" d="M590.931,72.452c1.002,0.005,1.81,0.821,1.805,1.822s-0.821,1.809-1.823,1.804
						c-1.001-0.005-1.809-0.821-1.804-1.823S589.93,72.446,590.931,72.452 M590.936,71.513c-1.517-0.008-2.758,1.221-2.766,2.738
						c-0.008,1.517,1.221,2.758,2.738,2.766s2.758-1.22,2.766-2.738C593.682,72.762,592.453,71.521,590.936,71.513L590.936,71.513z"
						/>
				</g>
				<g opacity="0.4">
					<circle fill="#C4C4C4" cx="470.639" cy="120.171" r="3.109"/>
					<path fill="#231F20" d="M470.655,117.063c1.717,0.009,3.102,1.408,3.093,3.125s-1.408,3.101-3.125,3.092
						c-1.717-0.008-3.102-1.408-3.093-3.125S468.938,117.054,470.655,117.063 M470.66,116.124c-2.231-0.011-4.057,1.795-4.068,4.027
						c-0.012,2.231,1.795,4.056,4.027,4.068c2.23,0.011,4.056-1.795,4.067-4.027C474.697,117.96,472.892,116.136,470.66,116.124
						L470.66,116.124z"/>
				</g>
				<g>
					<circle fill="#C4C4C4" cx="511.778" cy="101.773" r="1.331"/>
					<path fill="#231F20" d="M511.785,100.442c0.734,0.004,1.328,0.603,1.324,1.338c-0.004,0.735-0.604,1.328-1.338,1.325
						c-0.735-0.004-1.328-0.603-1.324-1.338C510.451,101.031,511.049,100.438,511.785,100.442 M511.789,99.503
						c-1.251-0.006-2.274,1.006-2.281,2.258c-0.006,1.251,1.007,2.275,2.259,2.281c1.251,0.006,2.274-1.007,2.281-2.258
						S513.041,99.51,511.789,99.503L511.789,99.503z"/>
				</g>
				<g>
					<circle fill="#C4C4C4" cx="545.891" cy="69.15" r="3.063"/>
					<path fill="#231F20" d="M545.906,66.087c1.692,0.009,3.057,1.387,3.048,3.079c-0.009,1.691-1.388,3.056-3.079,3.047
						c-1.691-0.009-3.056-1.387-3.047-3.079S544.215,66.079,545.906,66.087 M545.912,65.149c-2.207-0.011-4.011,1.774-4.022,3.981
						c-0.011,2.207,1.774,4.011,3.981,4.022c2.206,0.011,4.01-1.775,4.021-3.981C549.904,66.964,548.118,65.16,545.912,65.149
						L545.912,65.149z"/>
				</g>
				<g>
					<circle fill="#C4C4C4" cx="545.729" cy="-80.414" r="1.913"/>
					<path fill="#231F20" d="M545.738-82.327c1.057,0.006,1.909,0.866,1.903,1.923c-0.005,1.057-0.866,1.909-1.923,1.903
						c-1.057-0.005-1.908-0.866-1.903-1.922C543.82-81.48,544.682-82.333,545.738-82.327 M545.743-83.266
						c-1.572-0.008-2.858,1.265-2.866,2.837c-0.008,1.572,1.265,2.858,2.837,2.866c1.573,0.008,2.858-1.265,2.866-2.837
						C548.589-81.972,547.315-83.258,545.743-83.266L545.743-83.266z"/>
				</g>
				<g>
					<circle fill="#C4C4C4" cx="406.68" cy="195.906" r="2.768"/>
					<path fill="#231F20" d="M406.693,193.139c1.528,0.008,2.762,1.253,2.754,2.781s-1.254,2.762-2.781,2.754
						c-1.529-0.008-2.762-1.254-2.754-2.782S405.165,193.131,406.693,193.139 M406.698,192.2c-2.044-0.011-3.714,1.644-3.725,3.687
						c-0.011,2.044,1.644,3.715,3.687,3.726c2.044,0.011,3.715-1.644,3.726-3.688S408.742,192.21,406.698,192.2L406.698,192.2z"/>
				</g>
				<g>
					<circle fill="#C4C4C4" cx="449.019" cy="304.98" r="2.377"/>
					<path fill="#231F20" d="M449.031,302.603c1.313,0.007,2.372,1.077,2.365,2.39s-1.076,2.371-2.39,2.365
						c-1.313-0.007-2.371-1.076-2.364-2.39C446.648,303.654,447.719,302.596,449.031,302.603 M449.036,301.664
						c-1.828-0.01-3.323,1.471-3.333,3.299c-0.009,1.828,1.471,3.324,3.299,3.333s3.324-1.471,3.333-3.299
						C452.345,303.168,450.864,301.674,449.036,301.664L449.036,301.664z"/>
				</g>
				<g>
					<circle fill="#C4C4C4" cx="478.284" cy="315.364" r="3.083"/>
					<path fill="#231F20" d="M478.3,312.281c1.702,0.009,3.075,1.396,3.067,3.098c-0.01,1.703-1.396,3.076-3.099,3.067
						s-3.076-1.396-3.067-3.099C475.21,313.646,476.598,312.272,478.3,312.281 M478.305,311.343
						c-2.217-0.012-4.03,1.783-4.042,4.001c-0.011,2.217,1.784,4.03,4.001,4.041c2.217,0.012,4.03-1.783,4.042-4
						C482.316,313.167,480.521,311.354,478.305,311.343L478.305,311.343z"/>
				</g>
				<g>
					<circle fill="#C4C4C4" cx="492.171" cy="254.958" r="1.726"/>
					<path fill="#231F20" d="M492.18,253.232c0.953,0.005,1.722,0.781,1.717,1.734s-0.781,1.722-1.734,1.717
						s-1.721-0.781-1.717-1.734C490.451,253.996,491.227,253.228,492.18,253.232 M492.185,252.294
						c-1.469-0.008-2.67,1.182-2.678,2.65c-0.007,1.469,1.182,2.67,2.65,2.678c1.469,0.007,2.67-1.182,2.678-2.65
						S493.653,252.302,492.185,252.294L492.185,252.294z"/>
				</g>
				<g>
					<circle fill="#C4C4C4" cx="550.342" cy="225.017" r="3.34"/>
					<path fill="#231F20" d="M550.359,221.677c1.845,0.009,3.332,1.513,3.322,3.356c-0.009,1.846-1.512,3.333-3.356,3.323
						c-1.845-0.009-3.333-1.513-3.323-3.356C547.012,223.154,548.515,221.667,550.359,221.677 M550.363,220.738
						c-2.358-0.013-4.288,1.897-4.3,4.257c-0.012,2.358,1.897,4.288,4.257,4.3c2.359,0.013,4.289-1.897,4.301-4.256
						C554.633,222.68,552.724,220.75,550.363,220.738L550.363,220.738z"/>
				</g>
				<g>
					<circle fill="#C4C4C4" cx="145.144" cy="284.821" r="1.374"/>
					<path fill="#231F20" d="M145.15,283.447c0.759,0.004,1.371,0.622,1.367,1.381s-0.623,1.371-1.381,1.367
						c-0.759-0.004-1.371-0.623-1.367-1.381C143.773,284.055,144.392,283.443,145.15,283.447 M145.155,282.509
						c-1.275-0.007-2.318,1.025-2.324,2.3c-0.007,1.275,1.025,2.318,2.301,2.325c1.275,0.006,2.317-1.026,2.324-2.301
						C147.462,283.558,146.43,282.515,145.155,282.509L145.155,282.509z"/>
				</g>
				<g>
					<circle fill="#C4C4C4" cx="211.693" cy="245.851" r="2.222"/>
					<path fill="#231F20" d="M211.704,243.629c1.228,0.006,2.217,1.006,2.21,2.233c-0.006,1.227-1.006,2.216-2.233,2.21
						s-2.217-1.006-2.21-2.232C209.478,244.612,210.478,243.623,211.704,243.629 M211.709,242.69
						c-1.742-0.009-3.167,1.401-3.176,3.145c-0.009,1.742,1.402,3.167,3.144,3.176c1.743,0.009,3.167-1.401,3.177-3.144
						C214.862,244.124,213.452,242.699,211.709,242.69L211.709,242.69z"/>
				</g>
				<g opacity="0.4">
					<circle fill="#C4C4C4" cx="341.717" cy="105.325" r="1.341"/>
					<path fill="#231F20" d="M341.724,103.983c0.741,0.004,1.339,0.607,1.335,1.348s-0.607,1.338-1.349,1.334
						c-0.74-0.004-1.338-0.607-1.335-1.348C340.379,104.577,340.982,103.979,341.724,103.983 M341.729,103.045
						c-1.257-0.006-2.285,1.011-2.291,2.268c-0.007,1.257,1.011,2.285,2.268,2.292c1.258,0.007,2.285-1.011,2.292-2.268
						S342.985,103.051,341.729,103.045L341.729,103.045z"/>
				</g>
				<g opacity="0.4">
					<circle fill="#C4C4C4" cx="420.434" cy="161.551" r="3.058"/>
					<path fill="#231F20" d="M420.449,158.493c1.688,0.009,3.051,1.385,3.042,3.073c-0.009,1.689-1.385,3.051-3.073,3.042
						c-1.689-0.009-3.051-1.384-3.042-3.073C417.385,159.847,418.76,158.484,420.449,158.493 M420.454,157.555
						c-2.204-0.012-4.006,1.772-4.017,3.976c-0.012,2.204,1.771,4.006,3.976,4.017c2.204,0.012,4.006-1.771,4.017-3.976
						C424.441,159.367,422.657,157.565,420.454,157.555L420.454,157.555z"/>
				</g>
				<g opacity="0.4">
					<circle fill="#C4C4C4" cx="360.837" cy="168.458" r="1.526"/>
					<path fill="#231F20" d="M360.845,166.932c0.843,0.005,1.522,0.691,1.518,1.533c-0.005,0.843-0.69,1.522-1.533,1.519
						c-0.843-0.005-1.522-0.691-1.518-1.534C359.316,167.607,360.002,166.928,360.845,166.932 M360.85,165.993
						c-1.359-0.007-2.47,1.093-2.477,2.452c-0.008,1.358,1.093,2.47,2.451,2.477c1.359,0.007,2.47-1.093,2.477-2.452
						C363.308,167.111,362.208,166,360.85,165.993L360.85,165.993z"/>
				</g>
				<g>
					<circle fill="#C4C4C4" cx="363.246" cy="180.1" r="1.724"/>
					<path fill="#231F20" d="M363.255,178.376c0.952,0.005,1.721,0.78,1.716,1.732s-0.781,1.721-1.733,1.716
						s-1.72-0.781-1.716-1.733C361.527,179.139,362.303,178.371,363.255,178.376 M363.26,177.438
						c-1.469-0.008-2.669,1.181-2.676,2.648c-0.008,1.469,1.181,2.669,2.648,2.677c1.469,0.008,2.67-1.181,2.677-2.649
						C365.916,178.646,364.729,177.444,363.26,177.438L363.26,177.438z"/>
				</g>
				<g>
					<circle fill="#C4C4C4" cx="390.607" cy="200.709" r="1.35"/>
					<path fill="#231F20" d="M390.614,199.359c0.745,0.004,1.347,0.611,1.343,1.356s-0.611,1.347-1.356,1.343
						s-1.347-0.611-1.343-1.357C389.262,199.957,389.869,199.355,390.614,199.359 M390.619,198.42
						c-1.262-0.006-2.294,1.016-2.3,2.277c-0.007,1.262,1.015,2.293,2.276,2.299c1.262,0.007,2.293-1.014,2.3-2.275
						S391.881,198.427,390.619,198.42L390.619,198.42z"/>
				</g>
				<g>
					<circle fill="#C4C4C4" cx="519.602" cy="201.367" r="2.346"/>
					<path fill="#231F20" d="M519.614,199.021c1.296,0.007,2.341,1.063,2.334,2.358s-1.063,2.341-2.358,2.334
						c-1.296-0.006-2.341-1.063-2.334-2.357C517.262,200.059,518.318,199.014,519.614,199.021 M519.619,198.082
						c-1.812-0.01-3.293,1.457-3.303,3.268c-0.009,1.812,1.457,3.293,3.27,3.303c1.811,0.009,3.292-1.457,3.301-3.269
						C522.896,199.572,521.431,198.091,519.619,198.082L519.619,198.082z"/>
				</g>
				<g>
					<circle fill="#C4C4C4" cx="546.035" cy="101.483" r="2.697"/>
					<path fill="#231F20" d="M546.049,98.786c1.489,0.007,2.691,1.221,2.684,2.711s-1.222,2.691-2.711,2.684
						c-1.49-0.008-2.691-1.221-2.684-2.711C543.345,99.979,544.559,98.778,546.049,98.786 M546.054,97.847
						c-2.005-0.01-3.645,1.613-3.655,3.618c-0.01,2.004,1.613,3.644,3.617,3.654c2.006,0.01,3.645-1.612,3.655-3.617
						C549.681,99.497,548.059,97.857,546.054,97.847L546.054,97.847z"/>
				</g>
				<g>
					<circle fill="#C4C4C4" cx="225.455" cy="270.345" r="2.925"/>
					<path fill="#231F20" d="M225.47,267.419c1.616,0.009,2.918,1.325,2.91,2.94s-1.325,2.918-2.94,2.91
						c-1.615-0.009-2.918-1.325-2.91-2.94C222.539,268.714,223.855,267.411,225.47,267.419 M225.475,266.48
						c-2.13-0.011-3.873,1.714-3.883,3.844c-0.011,2.131,1.714,3.873,3.844,3.884c2.13,0.011,3.873-1.714,3.883-3.844
						C229.33,268.233,227.605,266.492,225.475,266.48L225.475,266.48z"/>
				</g>
				<g>
					<circle fill="#C4C4C4" cx="252.779" cy="237.687" r="1.685"/>
					<path fill="#231F20" d="M252.788,236.002c0.93,0.005,1.681,0.764,1.676,1.693s-0.763,1.681-1.693,1.676
						c-0.93-0.005-1.68-0.763-1.676-1.693C251.1,236.748,251.858,235.998,252.788,236.002 M252.793,235.063
						c-1.446-0.007-2.629,1.163-2.637,2.61c-0.007,1.445,1.164,2.629,2.61,2.636c1.446,0.008,2.629-1.163,2.636-2.609
						C255.41,236.254,254.239,235.071,252.793,235.063L252.793,235.063z"/>
				</g>
				<g>
					<circle fill="#C4C4C4" cx="291.225" cy="323.713" r="2.647"/>
					<path fill="#231F20" d="M291.238,321.066c1.462,0.008,2.641,1.199,2.633,2.66c-0.007,1.462-1.197,2.641-2.66,2.633
						c-1.461-0.007-2.64-1.198-2.632-2.66C288.586,322.238,289.777,321.06,291.238,321.066 M291.243,320.128
						c-1.977-0.01-3.593,1.59-3.604,3.567c-0.01,1.977,1.59,3.593,3.567,3.604c1.977,0.01,3.594-1.59,3.604-3.567
						C294.82,321.755,293.221,320.139,291.243,320.128L291.243,320.128z"/>
				</g>
				<g>
					<circle fill="#C4C4C4" cx="306.787" cy="237.497" r="2.768"/>
					<path fill="#231F20" d="M306.801,234.729c1.528,0.008,2.761,1.253,2.753,2.782c-0.007,1.527-1.253,2.761-2.781,2.753
						s-2.761-1.253-2.753-2.782C304.027,235.955,305.272,234.722,306.801,234.729 M306.806,233.791
						c-2.044-0.01-3.714,1.644-3.725,3.688c-0.011,2.043,1.644,3.714,3.687,3.725c2.044,0.01,3.715-1.644,3.725-3.688
						C310.503,235.473,308.85,233.802,306.806,233.791L306.806,233.791z"/>
				</g>
				<g>
					<circle fill="#C4C4C4" cx="386.526" cy="274.655" r="2.414"/>
					<path fill="#231F20" d="M386.539,272.241c1.333,0.007,2.408,1.093,2.401,2.427c-0.007,1.333-1.093,2.408-2.427,2.401
						c-1.332-0.007-2.408-1.093-2.401-2.427C384.119,273.31,385.206,272.234,386.539,272.241 M386.544,271.303
						c-1.849-0.01-3.36,1.487-3.37,3.336c-0.01,1.848,1.487,3.359,3.336,3.369s3.36-1.486,3.369-3.335
						C389.889,272.824,388.393,271.313,386.544,271.303L386.544,271.303z"/>
				</g>
				<g>
					<circle fill="#C4C4C4" cx="319.875" cy="212.676" r="1.772"/>
					<path fill="#231F20" d="M319.884,210.904c0.979,0.004,1.769,0.802,1.763,1.78c-0.005,0.979-0.802,1.768-1.781,1.763
						c-0.978-0.005-1.768-0.803-1.762-1.781C318.108,211.688,318.905,210.898,319.884,210.904 M319.889,209.965
						c-1.494-0.008-2.717,1.202-2.725,2.697c-0.007,1.494,1.203,2.717,2.697,2.724c1.494,0.008,2.717-1.202,2.725-2.696
						C322.593,211.195,321.383,209.973,319.889,209.965L319.889,209.965z"/>
				</g>
				<g opacity="0.4">
					<circle fill="#C4C4C4" cx="354.624" cy="55.614" r="2.12"/>
					<path fill="#231F20" d="M354.635,53.494c1.17,0.006,2.114,0.96,2.108,2.13s-0.96,2.115-2.131,2.109
						c-1.17-0.006-2.114-0.96-2.108-2.13C352.51,54.432,353.464,53.488,354.635,53.494 M354.639,52.556
						c-1.686-0.009-3.064,1.356-3.073,3.042s1.356,3.065,3.042,3.074c1.687,0.008,3.065-1.356,3.074-3.042
						S356.325,52.564,354.639,52.556L354.639,52.556z"/>
				</g>
				<g opacity="0.4">
					<circle fill="#C4C4C4" cx="408.855" cy="71.94" r="1.574"/>
					<path fill="#231F20" d="M408.863,70.366c0.869,0.004,1.57,0.713,1.566,1.583c-0.005,0.869-0.713,1.57-1.583,1.566
						c-0.869-0.004-1.57-0.712-1.566-1.583C407.285,71.063,407.994,70.361,408.863,70.366 M408.868,69.427
						c-1.386-0.007-2.519,1.114-2.526,2.5c-0.007,1.385,1.115,2.519,2.5,2.526c1.386,0.007,2.52-1.115,2.526-2.5
						C411.375,70.567,410.254,69.434,408.868,69.427L408.868,69.427z"/>
				</g>
				<g>
					<circle fill="#C4C4C4" cx="414.497" cy="-65.965" r="2.502"/>
					<path fill="#231F20" d="M414.51-68.466c1.381,0.007,2.496,1.133,2.488,2.515c-0.007,1.382-1.133,2.496-2.514,2.489
						c-1.383-0.007-2.496-1.133-2.49-2.514C412.002-67.359,413.128-68.473,414.51-68.466 M414.514-69.405
						c-1.896-0.01-3.447,1.526-3.457,3.423s1.525,3.448,3.422,3.458c1.897,0.009,3.449-1.526,3.459-3.423
						C417.946-67.844,416.411-69.395,414.514-69.405L414.514-69.405z"/>
				</g>
				<g opacity="0.4">
					<circle fill="#C4C4C4" cx="408.814" cy="19.372" r="3.389"/>
					<path fill="#231F20" d="M408.832,15.983c1.871,0.009,3.381,1.535,3.371,3.406c-0.01,1.872-1.534,3.381-3.406,3.372
						c-1.871-0.01-3.381-1.535-3.371-3.406S406.961,15.973,408.832,15.983 M408.837,15.044c-2.386-0.012-4.337,1.919-4.35,4.305
						c-0.012,2.386,1.919,4.337,4.306,4.35c2.386,0.012,4.337-1.919,4.35-4.306C413.154,17.008,411.223,15.057,408.837,15.044
						L408.837,15.044z"/>
				</g>
				<g>
					<circle fill="#C4C4C4" cx="462.677" cy="47.792" r="1.73"/>
					<path fill="#231F20" d="M462.686,46.062c0.955,0.004,1.725,0.783,1.72,1.738c-0.005,0.955-0.783,1.726-1.737,1.721
						c-0.956-0.005-1.727-0.783-1.722-1.738S461.729,46.057,462.686,46.062 M462.689,45.123c-1.471-0.007-2.674,1.184-2.682,2.655
						s1.184,2.674,2.654,2.682c1.472,0.007,2.675-1.183,2.683-2.654C465.352,46.334,464.161,45.131,462.689,45.123L462.689,45.123z"
						/>
				</g>
				<g>
					<circle fill="#C4C4C4" cx="436.988" cy="-58.872" r="1.923"/>
					<path fill="#231F20" d="M436.998-60.794c1.063,0.005,1.919,0.871,1.914,1.933c-0.006,1.062-0.871,1.918-1.934,1.913
						c-1.062-0.005-1.918-0.871-1.912-1.933C435.071-59.943,435.937-60.8,436.998-60.794 M437.004-61.733
						c-1.578-0.008-2.868,1.27-2.877,2.847c-0.008,1.578,1.27,2.868,2.848,2.876c1.577,0.008,2.867-1.27,2.876-2.847
						C439.858-60.435,438.581-61.725,437.004-61.733L437.004-61.733z"/>
				</g>
				<g>
					<circle fill="#C4C4C4" cx="548.37" cy="309.208" r="1.796"/>
					<path fill="#231F20" d="M548.379,307.412c0.991,0.005,1.792,0.813,1.787,1.806s-0.813,1.792-1.806,1.787
						s-1.792-0.813-1.787-1.806S547.387,307.407,548.379,307.412 M548.383,306.474c-1.508-0.008-2.74,1.213-2.748,2.721
						c-0.008,1.509,1.213,2.741,2.721,2.749s2.741-1.213,2.749-2.721S549.892,306.481,548.383,306.474L548.383,306.474z"/>
				</g>
				<g>
					<circle fill="#C4C4C4" cx="572.532" cy="230.945" r="2.236"/>
					<path fill="#231F20" d="M572.543,228.709c1.235,0.006,2.231,1.013,2.225,2.247c-0.006,1.235-1.012,2.231-2.247,2.225
						c-1.235-0.006-2.231-1.013-2.225-2.247C570.302,229.698,571.309,228.703,572.543,228.709 M572.548,227.771
						c-1.751-0.009-3.183,1.407-3.19,3.158c-0.01,1.751,1.407,3.182,3.158,3.19c1.75,0.01,3.182-1.407,3.19-3.158
						C575.715,229.211,574.299,227.779,572.548,227.771L572.548,227.771z"/>
				</g>
			</g>
		</g>
	</g>
</g>
</svg>
