<?xml version="1.0" encoding="utf-8"?>
<!-- Generator: Adobe Illustrator 16.0.0, SVG Export Plug-In . SVG Version: 6.00 Build 0)  -->
<!DOCTYPE svg PUBLIC "-//W3C//DTD SVG 1.1//EN" "http://www.w3.org/Graphics/SVG/1.1/DTD/svg11.dtd">
<svg version="1.1" id="Camada_1" xmlns="http://www.w3.org/2000/svg" xmlns:xlink="http://www.w3.org/1999/xlink" x="0px" y="0px"
	 width="119.25px" height="50px" viewBox="0 0 119.25 50" enable-background="new 0 0 119.25 50" xml:space="preserve">
<g display="none">
	<path display="inline" fill="#161616" stroke="#E2E2E2" stroke-width="0.1" stroke-miterlimit="10" d="M43.941,32.76
		c0,0-1.28,4.33-2.25,6.375c-0.769,1.623-2.166,4.209-4.125,5.875c-5.57,4.74-8.375-0.916-8.375-0.916
		c-0.916-2.75-0.022-9.727-0.457-11.209c-0.709-2.416-4.208-2.541-4.208-2.541s-1.485,5.703-2.554,4.846
		c-0.194-0.153,0.928-2.971-0.03-4.68c-0.306-0.545-0.995-1.557-1.053-2.279c-0.311-3.893,1.25-4.729,1.25-4.729
		s2.271-1.813,3.729,0.146c0.801,1.075,0.075,2.422,0.104,3c0.104,2.209,1.928,2.51,1.928,2.51s5.729,0.646,6.791,2.729
		c0.432,0.846,0.131,7.482,0.25,9.168c0.037,0.51,0.803,1.744,2.75,0.375c0.863-0.604,2.113-2.391,2.584-3.334
		C41,36.646,42.5,32.027,43.941,32.76z"/>
	<g display="inline">
		<g>
			<g>
				<g>
					<path fill="#161616" stroke="#E2E2E2" stroke-width="0.1" stroke-miterlimit="10" d="M22.681,42.863
						c-1.406,0.406-5.807,0.504-6.625,0.438c-3.864-0.313-6.219-4.426-6.031-6.926l11.234-1.188c0,0,1.094-1.644,0.531-4.156
						c-0.127-0.566-0.665-1.393-1.033-2c-0.675-1.117,0.018-4.219,0.018-4.219s-5.314-4.83-12.334-2.073
						C3.4,24.718,0.994,31.098,0.869,34.717c-0.018,0.514-0.018,0.754-0.001,1.668c0.077,4.244,0.681,9.707,8.376,12.146
						c5.125,1.625,11.823,0.051,14-1.043L22.681,42.863z M9.953,28.863c0.436-1.285,1.023-2.312,2.396-2.543
						c2.384-0.405,2.396,1.918,2.396,1.918v3.291l-4.97,0.783C9.775,32.313,9.556,30.031,9.953,28.863z"/>
				</g>
			</g>
		</g>
	</g>
	<g display="inline">
		<path fill="#161616" stroke="#E2E2E2" stroke-width="0.1" stroke-miterlimit="10" d="M49.725,6.455
			c0.002-0.035,0.068-0.036,0.065,0l0,0l-0.022,3.314c-0.021,3-3.354,6.438-4.688,7.932l0,0l-4.905,5.619
			c-1.7,1.953-5.063,5.776-3.704,9.521c0.064,0.115,0.096,0.232-0.068,0.078c-0.36-0.313-0.914-1.356-1.032-3.242
			c-0.237-3.389,1.769-6.416,4.235-9.247l0,0l4.67-5.354C49.007,9.645,49.479,8.687,49.725,6.455L49.725,6.455L49.725,6.455z"/>
		<path fill="#161616" stroke="#E2E2E2" stroke-width="0.1" stroke-miterlimit="10" d="M45.037,23.398
			c1.334-1.532,4.669-4.97,4.689-7.973l0,0l0.024-3.311c-0.001-0.041-0.065-0.04-0.065,0c-0.248,2.229-0.719,3.188-5.453,8.618l0,0
			l-4.338,4.975c-1.566,1.833-3.002,3.71-2.957,6.789c0.018,1.885,0.834,3.471,2.057,3.824c0.492,0.158,0.459,0.084,0.328,0.004
			c-1.713-0.973-1.553-4.59,1.248-7.842l0,0L45.037,23.398L45.037,23.398z"/>
		<path fill="#161616" stroke="#E2E2E2" stroke-width="0.1" stroke-miterlimit="10" d="M39.654,18.313
			c-3.602,4.132-4.276,5.86-4.527,8.744c0,0.117-0.195-0.578-0.227-1.08c-0.184-1.693-0.075-2.925,0.432-4.614
			c0.75-2.495,2.514-4.522,4.814-7.124l0,0l4.17-4.818c4.733-5.432,5.205-6.389,5.453-8.621c0-0.038,0.063-0.037,0.063,0l0,0
			l-0.021,3.31c-0.022,3.003-3.354,6.442-4.689,7.97l0,0L39.654,18.313L39.654,18.313z"/>
	</g>
</g>
<g display="none">
	<path display="inline" fill="#161616" stroke="#E2E2E2" stroke-width="0.25" stroke-miterlimit="10" d="M49.089,48.047V25.543
		h4.638c0.833,0,1.569,0.043,2.207,0.131c0.638,0.088,1.263,0.258,1.875,0.514c0.613,0.254,1.117,0.594,1.513,1.019
		c0.396,0.426,0.713,0.985,0.95,1.683c0.238,0.695,0.356,1.52,0.356,2.469c0,1.176-0.276,2.102-0.832,2.775
		c-0.555,0.674-1.415,1.209-2.582,1.602c2.675,0.648,4.013,2.541,4.013,5.676c0,2.259-0.541,3.93-1.625,5.014
		c-1.083,1.083-2.738,1.625-4.963,1.625h-5.55V48.047z M53.615,34.395h0.775c0.417,0,0.767-0.078,1.05-0.237
		c0.283-0.158,0.498-0.39,0.644-0.693c0.146-0.305,0.248-0.632,0.306-0.981c0.058-0.351,0.087-0.763,0.087-1.236
		c0-0.376-0.027-0.705-0.081-0.988s-0.115-0.519-0.181-0.706c-0.067-0.188-0.18-0.346-0.338-0.476
		c-0.158-0.129-0.298-0.225-0.419-0.287s-0.304-0.107-0.55-0.139c-0.246-0.028-0.444-0.045-0.594-0.049s-0.384-0.008-0.7-0.008
		v5.801H53.615z M53.64,44.834h0.425c0.592,0,1.071-0.068,1.438-0.206c0.367-0.138,0.646-0.373,0.838-0.707
		c0.191-0.333,0.318-0.71,0.381-1.131s0.094-0.985,0.094-1.694c0-1.176-0.207-2.088-0.619-2.738
		c-0.412-0.649-1.115-0.975-2.106-0.975h-0.45L53.64,44.834L53.64,44.834z"/>
	<path display="inline" fill="#161616" stroke="#E2E2E2" stroke-width="0.25" stroke-miterlimit="10" d="M63.342,48.047V25.543
		h4.551v22.504H63.342z M64.342,23.83l1.7-5.526h4.313l-3.463,5.526H64.342z"/>
	<path display="inline" fill="#161616" stroke="#E2E2E2" stroke-width="0.25" stroke-miterlimit="10" d="M70.568,48.047V25.543
		h4.638c0.833,0,1.569,0.043,2.207,0.131s1.263,0.258,1.875,0.514c0.612,0.254,1.116,0.594,1.513,1.019
		c0.396,0.426,0.713,0.985,0.95,1.683c0.237,0.695,0.356,1.52,0.356,2.469c0,1.176-0.277,2.102-0.832,2.775
		s-1.416,1.209-2.582,1.602c2.675,0.648,4.013,2.541,4.013,5.676c0,2.259-0.542,3.93-1.625,5.014
		c-1.083,1.083-2.738,1.625-4.963,1.625h-5.55V48.047z M75.094,34.395h0.775c0.417,0,0.768-0.078,1.05-0.237
		c0.283-0.158,0.498-0.39,0.644-0.693c0.146-0.305,0.248-0.632,0.307-0.981c0.059-0.351,0.087-0.763,0.087-1.236
		c0-0.376-0.026-0.705-0.081-0.988s-0.115-0.519-0.182-0.706s-0.18-0.346-0.338-0.476c-0.157-0.129-0.297-0.225-0.418-0.287
		s-0.305-0.107-0.551-0.139c-0.246-0.028-0.443-0.045-0.594-0.049s-0.384-0.008-0.7-0.008L75.094,34.395L75.094,34.395z
		 M75.119,44.834h0.425c0.593,0,1.071-0.068,1.438-0.206s0.646-0.373,0.838-0.707c0.191-0.333,0.318-0.71,0.381-1.131
		s0.094-0.985,0.094-1.694c0-1.176-0.207-2.088-0.619-2.738c-0.412-0.649-1.115-0.975-2.105-0.975h-0.45L75.119,44.834
		L75.119,44.834z"/>
	<path display="inline" fill="#161616" stroke="#E2E2E2" stroke-width="0.25" stroke-miterlimit="10" d="M84.82,48.047V25.543h4.552
		v19.378h4.476v3.126H84.82z"/>
	<path display="inline" fill="#161616" stroke="#E2E2E2" stroke-width="0.25" stroke-miterlimit="10" d="M95.298,48.047V25.543
		h4.552v22.504H95.298z"/>
	<path display="inline" fill="#161616" stroke="#E2E2E2" stroke-width="0.25" stroke-miterlimit="10" d="M101.299,48.047
		l4.863-22.504h4.025l4.852,22.504h-4.488l-0.925-4.813h-2.938l-0.875,4.813H101.299z M107,40.434h2.325l-1.138-8.353L107,40.434z"
		/>
</g>
<image overflow="visible" width="1001" height="233" xlink:href="er-biblia-logo.png"  transform="matrix(0.1175 0 0 0.1175 0.625 12)">
</image>
</svg>
