<?xml version="1.0" encoding="utf-8"?>
<!-- Generator: Adobe Illustrator 16.0.0, SVG Export Plug-In . SVG Version: 6.00 Build 0)  -->
<!DOCTYPE svg PUBLIC "-//W3C//DTD SVG 1.1//EN" "http://www.w3.org/Graphics/SVG/1.1/DTD/svg11.dtd">
<svg version="1.1" id="Camada_1" xmlns="http://www.w3.org/2000/svg" xmlns:xlink="http://www.w3.org/1999/xlink" x="0px" y="0px"
	 width="178.5px" height="50px" viewBox="0 0 178.5 50" enable-background="new 0 0 178.5 50" xml:space="preserve">
<g>
	<path fill="#F4F0EE" stroke="#000000" stroke-width="0.1" stroke-miterlimit="10" d="M43.941,32.76c0,0-1.28,4.33-2.25,6.375
		c-0.769,1.623-2.166,4.209-4.125,5.875c-5.57,4.74-8.375-0.916-8.375-0.916c-0.916-2.75-0.022-9.727-0.457-11.209
		c-0.709-2.416-4.208-2.541-4.208-2.541s-1.485,5.703-2.554,4.846c-0.194-0.155,0.928-2.971-0.03-4.68
		c-0.306-0.545-0.995-1.557-1.053-2.279c-0.311-3.893,1.25-4.729,1.25-4.729s2.271-1.813,3.729,0.146
		c0.801,1.075,0.075,2.422,0.104,3c0.104,2.209,1.928,2.51,1.928,2.51s5.729,0.646,6.791,2.729c0.432,0.846,0.131,7.482,0.25,9.168
		c0.037,0.51,0.803,1.744,2.75,0.375c0.863-0.606,2.113-2.391,2.584-3.334C41,36.646,42.5,32.027,43.941,32.76z"/>
	<g>
		<g>
			<g>
				<g>
					<path fill="#F4F0EE" stroke="#000000" stroke-width="0.1" stroke-miterlimit="10" d="M22.681,42.863
						c-1.406,0.406-5.807,0.504-6.625,0.438c-3.864-0.313-6.219-4.426-6.031-6.926l11.234-1.188c0,0,1.094-1.642,0.531-4.156
						c-0.127-0.566-0.665-1.392-1.033-2c-0.675-1.117,0.018-4.219,0.018-4.219s-5.314-4.83-12.334-2.073
						C3.4,24.718,0.994,31.098,0.869,34.717c-0.018,0.514-0.018,0.754-0.001,1.668c0.077,4.244,0.681,9.707,8.376,12.146
						c5.125,1.625,11.823,0.051,14-1.043L22.681,42.863z M9.953,28.863c0.436-1.285,1.023-2.31,2.396-2.543
						c2.384-0.405,2.396,1.918,2.396,1.918v3.291l-4.97,0.783C9.775,32.313,9.556,30.031,9.953,28.863z"/>
				</g>
			</g>
		</g>
	</g>
	<g>
		<path fill="#F4F0EE" stroke="#000000" stroke-width="0.1" stroke-miterlimit="10" d="M49.725,6.455
			c0.002-0.035,0.068-0.036,0.065,0l0,0l-0.022,3.314c-0.021,3-3.354,6.438-4.688,7.932l0,0l-4.905,5.619
			c-1.7,1.953-5.063,5.777-3.704,9.521c0.064,0.115,0.096,0.232-0.068,0.078c-0.36-0.313-0.914-1.356-1.032-3.242
			c-0.237-3.389,1.769-6.416,4.235-9.247l0,0l4.67-5.355C49.007,9.645,49.479,8.687,49.725,6.455L49.725,6.455L49.725,6.455z"/>
		<path fill="#F4F0EE" stroke="#000000" stroke-width="0.1" stroke-miterlimit="10" d="M45.037,23.398
			c1.334-1.532,4.669-4.97,4.689-7.973l0,0l0.024-3.311c-0.001-0.041-0.065-0.04-0.065,0c-0.248,2.229-0.719,3.188-5.453,8.618l0,0
			l-4.338,4.975c-1.566,1.833-3.002,3.71-2.957,6.789c0.018,1.885,0.834,3.471,2.057,3.824c0.492,0.158,0.459,0.084,0.328,0.004
			c-1.713-0.973-1.553-4.59,1.248-7.842l0,0L45.037,23.398L45.037,23.398z"/>
		<path fill="#F4F0EE" stroke="#000000" stroke-width="0.1" stroke-miterlimit="10" d="M39.654,18.313
			c-3.602,4.132-4.276,5.86-4.527,8.744c0,0.117-0.195-0.578-0.227-1.08c-0.184-1.695-0.075-2.925,0.432-4.615
			c0.75-2.495,2.514-4.522,4.814-7.124l0,0l4.17-4.818c4.733-5.432,5.205-6.389,5.453-8.621c0-0.038,0.063-0.037,0.063,0l0,0
			l-0.021,3.31c-0.022,3.003-3.354,6.442-4.689,7.97l0,0L39.654,18.313L39.654,18.313z"/>
	</g>
</g>
</svg>
