<?xml version="1.0" encoding="utf-8"?>
<!-- Generator: Adobe Illustrator 16.0.0, SVG Export Plug-In . SVG Version: 6.00 Build 0)  -->
<!DOCTYPE svg PUBLIC "-//W3C//DTD SVG 1.1//EN" "http://www.w3.org/Graphics/SVG/1.1/DTD/svg11.dtd">
<svg version="1.1" id="Camada_1" xmlns="http://www.w3.org/2000/svg" xmlns:xlink="http://www.w3.org/1999/xlink" x="0px" y="0px"
	 width="119.25px" height="50px" viewBox="0 0 119.25 50" enable-background="new 0 0 119.25 50" xml:space="preserve">
<g>
	<path fill="#FFAB00" d="M43.941,32.76c0,0-1.28,4.33-2.25,6.375c-0.769,1.623-2.166,4.209-4.125,5.875
		c-5.57,4.74-8.375-0.916-8.375-0.916c-0.916-2.75-0.022-9.727-0.457-11.209c-0.709-2.416-4.208-2.541-4.208-2.541
		s-1.485,5.703-2.554,4.846c-0.194-0.153,0.928-2.971-0.03-4.68c-0.306-0.545-0.995-1.557-1.053-2.279
		c-0.311-3.893,1.25-4.729,1.25-4.729s2.271-1.813,3.729,0.146c0.801,1.075,0.075,2.422,0.104,3c0.104,2.209,1.928,2.51,1.928,2.51
		s5.729,0.646,6.791,2.729c0.432,0.846,0.131,7.482,0.25,9.168c0.037,0.51,0.803,1.744,2.75,0.375
		c0.863-0.604,2.113-2.391,2.584-3.334C41,36.646,42.5,32.027,43.941,32.76z"/>
	<g>
		<g>
			<g>
				<g>
					<path fill="#FFAB00" d="M22.681,42.863c-1.406,0.406-5.807,0.504-6.625,0.438c-3.864-0.313-6.219-4.426-6.031-6.926
						l11.234-1.188c0,0,1.094-1.644,0.531-4.156c-0.127-0.566-0.665-1.394-1.033-2c-0.675-1.117,0.018-4.219,0.018-4.219
						s-5.314-4.83-12.334-2.073C3.4,24.718,0.994,31.098,0.869,34.717c-0.018,0.514-0.018,0.754-0.001,1.668
						c0.077,4.244,0.681,9.707,8.376,12.146c5.125,1.625,11.823,0.051,14-1.043L22.681,42.863z M9.953,28.863
						c0.436-1.285,1.023-2.312,2.396-2.543c2.384-0.405,2.396,1.918,2.396,1.918v3.291l-4.97,0.783
						C9.775,32.313,9.556,30.031,9.953,28.863z"/>
				</g>
			</g>
		</g>
	</g>
	<g>
		<path fill="#FFAB00" d="M49.725,6.455c0.002-0.035,0.068-0.036,0.065,0l0,0l-0.022,3.314c-0.021,3-3.354,6.438-4.688,7.932l0,0
			l-4.905,5.619c-1.7,1.953-5.063,5.775-3.704,9.521c0.064,0.115,0.096,0.232-0.068,0.078c-0.36-0.313-0.914-1.356-1.032-3.242
			c-0.237-3.389,1.769-6.416,4.235-9.247l0,0l4.67-5.354C49.007,9.645,49.479,8.687,49.725,6.455L49.725,6.455L49.725,6.455z"/>
		<path fill="#FFAB00" d="M45.037,23.398c1.334-1.532,4.669-4.97,4.689-7.973l0,0l0.024-3.311c-0.001-0.041-0.065-0.04-0.065,0
			c-0.248,2.229-0.719,3.188-5.453,8.618l0,0l-4.338,4.975c-1.566,1.833-3.002,3.71-2.957,6.789
			c0.018,1.885,0.834,3.471,2.057,3.824c0.492,0.158,0.459,0.084,0.328,0.004c-1.713-0.973-1.553-4.59,1.248-7.842l0,0
			L45.037,23.398L45.037,23.398z"/>
		<path fill="#FFAB00" d="M39.654,18.313c-3.602,4.132-4.276,5.86-4.527,8.744c0,0.117-0.195-0.578-0.227-1.08
			c-0.184-1.693-0.075-2.925,0.432-4.613c0.75-2.495,2.514-4.522,4.814-7.124l0,0l4.17-4.818c4.733-5.432,5.205-6.389,5.453-8.621
			c0-0.038,0.063-0.037,0.063,0l0,0L49.811,4.11c-0.022,3.003-3.354,6.441-4.689,7.97l0,0L39.654,18.313L39.654,18.313z"/>
	</g>
</g>
<image overflow="visible" width="904" height="346" xlink:href="../../../../../../../Users/accosta/Desktop/logo.png"  transform="matrix(0.9999 0 0 0.9999 -223.9434 -339.5278)">
</image>
<g>
	<path stroke="#E2E2E2" stroke-width="0.25" stroke-miterlimit="10" d="M61.748,40.429c0,1.396-0.217,2.548-0.65,3.456
		c-0.436,0.909-1.033,1.628-1.793,2.156c-0.76,0.528-1.666,0.898-2.716,1.109s-2.191,0.317-3.422,0.317
		c-0.978,0-1.856-0.043-2.635-0.127c-0.779-0.085-1.621-0.19-2.526-0.317V24.354c0.688-0.126,1.439-0.232,2.254-0.317
		c0.814-0.084,1.765-0.127,2.852-0.127c1.032,0,1.997,0.101,2.893,0.301c0.896,0.201,1.68,0.539,2.35,1.015s1.199,1.109,1.589,1.902
		s0.585,1.791,0.585,2.996c0,0.994-0.191,1.897-0.571,2.711c-0.38,0.813-0.86,1.442-1.439,1.886c0.417,0.19,0.819,0.439,1.208,0.745
		c0.389,0.307,0.734,0.688,1.033,1.142c0.299,0.455,0.539,0.999,0.719,1.633C61.658,38.875,61.748,39.604,61.748,40.429z
		 M52.704,33.01h0.76c0.778,0,1.385-0.185,1.82-0.555c0.435-0.369,0.652-1.009,0.652-1.918c0-0.444-0.077-0.813-0.23-1.109
		c-0.154-0.296-0.349-0.528-0.584-0.698c-0.236-0.169-0.499-0.285-0.788-0.349s-0.57-0.095-0.842-0.095c-0.108,0-0.24,0-0.394,0
		s-0.285,0.011-0.394,0.031V33.01z M52.704,37.512v5.327c0.126,0.021,0.285,0.037,0.475,0.047c0.19,0.011,0.439,0.017,0.747,0.017
		c0.344,0,0.693-0.043,1.046-0.127c0.353-0.085,0.674-0.228,0.964-0.429c0.29-0.2,0.521-0.476,0.693-0.824
		c0.172-0.349,0.258-0.787,0.258-1.315c0-1.015-0.285-1.717-0.855-2.108c-0.57-0.391-1.309-0.587-2.213-0.587H52.704z"/>
	<path stroke="#E2E2E2" stroke-width="0.25" stroke-miterlimit="10" d="M68.756,47.056c-0.472,0.084-0.896,0.147-1.277,0.189
		c-0.38,0.042-0.724,0.063-1.032,0.063c-0.308,0-0.651-0.021-1.031-0.063c-0.381-0.042-0.798-0.105-1.25-0.189v-16.36
		c0.398-0.105,0.792-0.179,1.182-0.222c0.39-0.042,0.765-0.063,1.127-0.063c0.344,0,0.716,0.021,1.114,0.063
		c0.397,0.043,0.787,0.116,1.168,0.222V47.056z M72.531,24.608c-0.326-0.063-0.711-0.111-1.154-0.143
		c-0.444-0.032-0.901-0.048-1.372-0.048c-0.96,0-1.792,0.063-2.498,0.19l-2.906,3.899c0.308,0.085,0.629,0.138,0.964,0.159
		c0.335,0.021,0.675,0.031,1.019,0.031c0.778,0,1.439-0.063,1.982-0.19L72.531,24.608z"/>
	<path stroke="#E2E2E2" stroke-width="0.25" stroke-miterlimit="10" d="M71.853,30.759c0.361-0.063,0.778-0.121,1.249-0.174
		s0.95-0.101,1.439-0.143c0.489-0.043,0.964-0.074,1.426-0.096c0.462-0.021,0.864-0.031,1.209-0.031
		c2.264,0,3.956,0.375,5.079,1.125c1.122,0.751,1.684,1.918,1.684,3.504c0,0.803-0.158,1.485-0.475,2.045
		c-0.317,0.56-0.747,1.041-1.29,1.442c0.76,0.317,1.385,0.771,1.874,1.363c0.488,0.592,0.733,1.427,0.733,2.505
		c0,1.944-0.616,3.292-1.848,4.042s-3.051,1.126-5.459,1.126c-0.634,0-1.463-0.027-2.485-0.08c-1.023-0.053-2.069-0.163-3.137-0.332
		V30.759z M76.388,36.973h1.331c0.688,0,1.149-0.174,1.386-0.522c0.234-0.349,0.353-0.714,0.353-1.094
		c0-0.359-0.122-0.692-0.366-0.999c-0.245-0.306-0.693-0.46-1.345-0.46c-0.199,0-0.431,0.006-0.692,0.017
		c-0.263,0.011-0.485,0.026-0.666,0.047V36.973z M76.388,40.302v3.266c0.055,0,0.199,0.011,0.435,0.032s0.553,0.031,0.951,0.031
		c0.761,0,1.304-0.147,1.63-0.443c0.325-0.296,0.488-0.708,0.488-1.236c0-0.212-0.031-0.418-0.095-0.618
		c-0.063-0.201-0.177-0.376-0.34-0.523s-0.39-0.27-0.679-0.365c-0.29-0.095-0.67-0.143-1.141-0.143H76.388z"/>
	<path stroke="#E2E2E2" stroke-width="0.25" stroke-miterlimit="10" d="M91.707,42.616h5.134c0.09,0.424,0.149,0.814,0.176,1.174
		c0.027,0.359,0.041,0.708,0.041,1.046s-0.014,0.692-0.041,1.063c-0.026,0.369-0.086,0.766-0.176,1.188h-9.724l0.026-16.392
		c0.398-0.105,0.792-0.179,1.182-0.222c0.39-0.042,0.765-0.063,1.127-0.063c0.344,0,0.716,0.021,1.114,0.063
		c0.397,0.043,0.787,0.116,1.168,0.222L91.707,42.616z"/>
	<path stroke="#E2E2E2" stroke-width="0.25" stroke-miterlimit="10" d="M103.576,47.056c-0.471,0.084-0.896,0.147-1.276,0.189
		c-0.381,0.042-0.725,0.063-1.032,0.063c-0.309,0-0.652-0.021-1.032-0.063s-0.797-0.105-1.249-0.189v-16.36
		c0.397-0.105,0.791-0.179,1.181-0.222c0.39-0.042,0.766-0.063,1.128-0.063c0.344,0,0.715,0.021,1.113,0.063
		c0.398,0.043,0.788,0.116,1.168,0.222V47.056z"/>
	<path stroke="#E2E2E2" stroke-width="0.25" stroke-miterlimit="10" d="M105.911,41.729c0-1.035,0.19-1.891,0.57-2.567
		c0.381-0.677,0.869-1.216,1.467-1.617s1.259-0.682,1.983-0.84c0.724-0.159,1.43-0.238,2.118-0.238h1.657
		c-0.019-0.381-0.108-0.697-0.271-0.951s-0.372-0.449-0.625-0.587c-0.254-0.137-0.534-0.231-0.842-0.285
		c-0.309-0.052-0.625-0.079-0.951-0.079c-0.435,0-0.941,0.059-1.521,0.175c-0.58,0.116-1.178,0.301-1.793,0.555
		c-0.163-0.359-0.304-0.687-0.421-0.983c-0.118-0.295-0.208-0.597-0.271-0.903c-0.063-0.306-0.108-0.623-0.136-0.951
		c-0.027-0.327-0.041-0.702-0.041-1.125c0.869-0.338,1.733-0.592,2.594-0.762c0.86-0.169,1.634-0.253,2.322-0.253
		c0.941,0,1.793,0.132,2.554,0.396c0.76,0.264,1.407,0.671,1.941,1.22c0.534,0.551,0.946,1.253,1.236,2.108
		c0.289,0.856,0.435,1.876,0.435,3.06v9.29c-0.688,0.232-1.521,0.465-2.499,0.697s-2.01,0.349-3.097,0.349
		c-0.941,0-1.806-0.101-2.594-0.301c-0.787-0.201-1.462-0.523-2.023-0.968c-0.562-0.443-1.001-1.03-1.317-1.759
		C106.069,43.679,105.911,42.786,105.911,41.729z M112.321,43.504c0.163,0,0.398-0.021,0.706-0.063
		c0.308-0.042,0.534-0.084,0.68-0.126v-3.488h-1.549c-0.634,0-1.168,0.159-1.603,0.476c-0.435,0.317-0.651,0.762-0.651,1.332
		c0,0.423,0.081,0.756,0.244,0.999s0.367,0.428,0.611,0.555s0.507,0.211,0.788,0.253C111.828,43.483,112.086,43.504,112.321,43.504z
		"/>
</g>
</svg>
