<?xml version="1.0" encoding="utf-8"?>
<!-- Generator: Adobe Illustrator 16.0.0, SVG Export Plug-In . SVG Version: 6.00 Build 0)  -->
<!DOCTYPE svg PUBLIC "-//W3C//DTD SVG 1.1//EN" "http://www.w3.org/Graphics/SVG/1.1/DTD/svg11.dtd">
<svg version="1.1" id="Camada_1" xmlns="http://www.w3.org/2000/svg" xmlns:xlink="http://www.w3.org/1999/xlink" x="0px" y="0px"
	 width="50px" height="50px" viewBox="0 0 50 50" xml:space="preserve">
<g>
	<path fill="#161a25" d="M43.942,32.76c0,0-1.281,4.33-2.25,6.375c-0.769,1.623-2.166,4.209-4.125,5.875
		c-5.571,4.74-8.375-0.916-8.375-0.916c-0.916-2.75-0.023-9.727-0.458-11.209c-0.708-2.416-4.208-2.541-4.208-2.541
		s-1.485,5.703-2.554,4.846c-0.194-0.156,0.928-2.971-0.03-4.68c-0.306-0.545-0.995-1.557-1.053-2.279
		c-0.311-3.893,1.25-4.729,1.25-4.729s2.271-1.813,3.729,0.146c0.801,1.075,0.076,2.422,0.104,3c0.104,2.209,1.929,2.51,1.929,2.51
		s5.729,0.646,6.791,2.729c0.431,0.846,0.131,7.482,0.25,9.168c0.036,0.51,0.802,1.744,2.75,0.375
		c0.862-0.607,2.112-2.391,2.584-3.334C41,36.646,42.5,32.027,43.942,32.76z"/>
	<g>
		<g>
			<g>
				<g>
					<path fill="#161a25" d="M22.681,42.863c-1.406,0.406-5.807,0.504-6.625,0.438c-3.864-0.313-6.219-4.426-6.031-6.926
						l11.234-1.188c0,0,1.094-1.641,0.531-4.156c-0.127-0.566-0.665-1.391-1.033-2c-0.675-1.117,0.018-4.219,0.018-4.219
						s-5.314-4.83-12.334-2.073C3.4,24.718,0.994,31.098,0.869,34.717c-0.018,0.514-0.018,0.754-0.001,1.668
						c0.077,4.244,0.681,9.707,8.376,12.146c5.125,1.625,11.823,0.051,14-1.043L22.681,42.863z M9.953,28.863
						c0.436-1.285,1.023-2.309,2.396-2.543c2.384-0.405,2.396,1.918,2.396,1.918v3.291l-4.97,0.783
						C9.775,32.313,9.556,30.031,9.953,28.863z"/>
				</g>
			</g>
		</g>
	</g>
	<g>
		<path fill-rule="evenodd" clip-rule="evenodd" fill="#161a25" d="M49.725,6.455c0.001-0.035,0.068-0.036,0.065,0l0,0l-0.023,3.314
			c-0.021,3-3.354,6.438-4.687,7.932l0,0l-4.905,5.619c-1.7,1.953-5.064,5.778-3.704,9.521c0.064,0.115,0.096,0.232-0.069,0.078
			c-0.36-0.313-0.914-1.357-1.032-3.242c-0.237-3.389,1.768-6.416,4.235-9.247l0,0l4.67-5.356
			C49.007,9.645,49.479,8.687,49.725,6.455L49.725,6.455L49.725,6.455z"/>
		<path fill-rule="evenodd" clip-rule="evenodd" fill="#161a25" d="M45.037,23.398c1.334-1.532,4.669-4.97,4.689-7.973l0,0
			l0.025-3.311c-0.001-0.041-0.065-0.04-0.066,0c-0.247,2.229-0.718,3.189-5.453,8.618l0,0l-4.338,4.975
			c-1.566,1.833-3.002,3.71-2.957,6.789c0.018,1.885,0.835,3.471,2.057,3.824c0.492,0.158,0.459,0.084,0.328,0.004
			c-1.712-0.973-1.553-4.59,1.248-7.842l0,0L45.037,23.398L45.037,23.398z"/>
		<path fill-rule="evenodd" clip-rule="evenodd" fill="#161a25" d="M39.655,18.313c-3.602,4.132-4.277,5.86-4.528,8.744
			c0,0.117-0.196-0.578-0.226-1.08c-0.184-1.696-0.076-2.925,0.431-4.616c0.75-2.495,2.513-4.522,4.814-7.124l0,0l4.171-4.818
			c4.733-5.432,5.205-6.389,5.452-8.621c0-0.038,0.064-0.037,0.063,0l0,0L49.81,4.108c-0.022,3.003-3.354,6.442-4.689,7.97l0,0
			L39.655,18.313L39.655,18.313z"/>
	</g>
</g>
</svg>
