<?xml version="1.0" encoding="UTF-8" standalone="no"?>
<svg width="41px" height="64px" viewBox="0 0 41 64" version="1.1" xmlns="http://www.w3.org/2000/svg" xmlns:xlink="http://www.w3.org/1999/xlink" xmlns:sketch="http://www.bohemiancoding.com/sketch/ns">
    <!-- Generator: Sketch 3.3.2 (12043) - http://www.bohemiancoding.com/sketch -->
    <title>ironman_logo_icon</title>
    <desc>Created with Sketch.</desc>
    <defs></defs>
    <g id="Demo-1" stroke="none" stroke-width="1" fill="none" fill-rule="evenodd" sketch:type="MSPage">
        <g sketch:type="MSArtboardGroup" transform="translate(-678.000000, -9653.000000)" id="Footer" fill="#000000">
            <g sketch:type="MSLayerGroup" transform="translate(0.000000, 9506.000000)">
                <path d="M713.937912,158.933972 C713.859757,158.896661 712.010254,157.931923 710.491039,157.223027 C709.322988,156.674032 706.965475,156.114378 705.628265,155.826555 L706.237451,150.299298 C707.107332,150.603111 707.897988,150.976214 708.546786,151.423938 C712.062179,153.865098 713.516087,155.458782 713.660621,155.821225 C713.729141,156.103718 713.83995,157.297648 713.966819,158.955292 C713.956648,158.949962 713.948619,158.939302 713.937912,158.933972 L713.937912,158.933972 L713.937912,158.933972 Z M713.812114,181.986418 C713.688992,183.068417 713.552488,184.251687 713.411166,185.472268 C712.694918,186.97001 711.6168,188.936797 710.102938,190.972874 C706.823082,195.386152 706.186061,196.3349 706.160901,196.377541 C706.148589,196.393531 706.14163,196.414851 706.130923,196.430841 C706.120217,196.452161 706.106299,196.468151 706.096663,196.484141 L703.806064,201.03067 L702.543263,200.007301 C702.310938,199.82075 702.022404,199.746129 701.746183,199.772779 C701.718883,199.772779 701.693188,199.767449 701.665887,199.767449 L694.706832,199.767449 C694.668825,199.767449 694.633494,199.772779 694.597093,199.778109 C694.30963,199.746129 694.010391,199.82075 693.774318,200.023292 L692.622862,201.00935 L690.469303,196.862575 C690.448425,196.803944 690.422195,196.739984 690.38847,196.681353 C690.340828,196.596072 689.192584,194.565325 686.408426,190.946224 C684.944884,189.043398 683.888713,187.183212 683.169789,185.71212 C683.017761,184.400929 682.87055,183.121718 682.737793,181.965098 C682.723339,181.842507 682.685332,181.719916 682.628054,181.607985 L683.247945,180.030291 L685.826007,184.731391 C685.968935,184.992564 686.213573,185.184445 686.502641,185.253736 L692.476722,186.762139 C692.563978,186.783459 692.652305,186.799449 692.740096,186.799449 C692.991157,186.799449 693.237401,186.708838 693.433325,186.543607 L695.696623,184.63012 C696.542952,184.710071 697.398915,184.752712 698.263979,184.752712 C699.101207,184.752712 699.929335,184.715401 700.748897,184.635451 L703.003096,186.543607 C703.198485,186.708838 703.444728,186.799449 703.696325,186.799449 C703.784116,186.799449 703.872442,186.783459 703.959163,186.762139 L709.933244,185.253736 C710.222312,185.184445 710.46695,184.992564 710.609878,184.731391 L713.17081,180.062272 L713.869392,181.757226 C713.842627,181.831847 713.821214,181.906467 713.812114,181.986418 L713.812114,181.986418 L713.812114,181.986418 Z M711.995265,197.219688 C711.613053,197.662081 711.026351,198.434938 710.008723,199.778109 C708.38191,201.920788 705.261042,206.030253 703.92758,207.527995 L702.543263,206.403356 C702.310402,206.216804 702.022404,206.142184 701.746183,206.168834 C701.718883,206.168834 701.693188,206.163504 701.665887,206.163504 L694.706832,206.163504 C694.668825,206.163504 694.633494,206.168834 694.597093,206.174164 C694.30963,206.142184 694.010391,206.216804 693.774318,206.419346 L692.495458,207.517335 C691.164673,206.019593 688.067893,201.851497 686.458746,199.682169 C685.488225,198.376308 684.925077,197.619441 684.554641,197.177047 C684.441155,196.430841 684.138704,193.95237 683.785933,190.972874 C684.076608,191.393948 684.38013,191.815022 684.708811,192.241425 C686.861836,195.039699 688.008474,196.867905 688.380516,197.48619 L691.267453,203.045427 C691.474618,203.40254 691.797411,203.743663 692.287222,203.743663 C692.732601,203.743663 693.036659,203.466501 693.044153,203.461171 L694.868496,201.899468 L701.485487,201.899468 L703.487018,203.525131 C703.489694,203.525131 703.492371,203.525131 703.494512,203.530461 C703.50843,203.541122 703.52449,203.551782 703.539478,203.562442 C703.548579,203.567772 703.55875,203.573102 703.56785,203.578432 C703.730049,203.727673 703.95488,203.823614 704.204336,203.823614 C704.573701,203.823614 704.890606,203.615742 705.025504,203.32792 C705.059229,203.279949 705.092418,203.231979 705.118113,203.184008 C705.119184,203.178678 705.120255,203.178678 705.121325,203.178678 L707.979891,197.50218 C708.14209,197.267658 708.958441,196.095048 711.824501,192.241425 C712.164959,191.783041 712.479187,191.329988 712.778962,190.882264 C712.419768,193.91506 712.110893,196.452161 711.995265,197.219688 L711.995265,197.219688 L711.995265,197.219688 Z M682.880721,155.842545 C683.033285,155.453452 684.486657,153.865098 688.003121,151.423938 C688.643889,150.981544 689.434009,150.613771 690.309244,150.309958 L690.922176,155.821225 C689.559808,156.114378 687.153045,156.674032 685.980712,157.223027 C684.693822,157.825322 683.057909,158.630159 682.588976,158.859351 C682.711562,157.255007 682.817019,156.109048 682.880721,155.842545 L682.880721,155.842545 L682.880721,155.842545 Z M692.715471,171.965933 C692.718148,171.992583 692.725642,172.013903 692.72939,172.035223 C692.735278,172.067203 692.741166,172.099184 692.749731,172.131164 C692.759367,172.168474 692.77275,172.200455 692.786133,172.237765 C692.796839,172.264415 692.806474,172.291065 692.819857,172.317716 C692.836987,172.355026 692.857864,172.387006 692.879277,172.418986 C692.89373,172.440307 692.906578,172.466957 692.923172,172.488277 C692.947261,172.520257 692.975098,172.546908 693.002934,172.578888 C693.020599,172.594878 693.037194,172.616198 693.056465,172.637518 C693.087513,172.664169 693.121773,172.685489 693.156033,172.712139 C693.17584,172.728129 693.194576,172.744119 693.215453,172.754779 C693.272196,172.79209 693.332151,172.82407 693.394247,172.84539 C693.402277,172.85072 693.410842,172.85072 693.418871,172.85072 C693.475614,172.87204 693.533428,172.88803 693.593918,172.898691 C693.597665,172.898691 693.601413,172.904021 693.60516,172.904021 L698.108739,173.644897 C698.166017,173.650227 698.224366,173.655557 698.282715,173.655557 C698.341064,173.655557 698.399413,173.650227 698.457227,173.644897 L702.9592,172.904021 C702.962948,172.904021 702.966695,172.898691 702.970977,172.898691 C703.030932,172.88803 703.088746,172.87204 703.145489,172.85072 C703.153519,172.85072 703.162084,172.85072 703.170113,172.84539 C703.232745,172.82407 703.2927,172.79209 703.348907,172.754779 C703.37032,172.744119 703.389056,172.728129 703.409398,172.712139 C703.443122,172.685489 703.477382,172.664169 703.507895,172.637518 C703.527702,172.616198 703.544296,172.594878 703.562497,172.578888 C703.589798,172.546908 703.617634,172.520257 703.641723,172.488277 C703.657782,172.466957 703.671165,172.440307 703.685619,172.418986 C703.707031,172.387006 703.727908,172.355026 703.745038,172.317716 C703.757886,172.291065 703.768057,172.264415 703.778763,172.237765 C703.792146,172.200455 703.805528,172.168474 703.815164,172.131164 C703.823729,172.099184 703.829618,172.067203 703.834971,172.035223 C703.839253,172.013903 703.846747,171.992583 703.849424,171.965933 L705.393264,157.958573 C706.773298,158.267716 708.720227,158.74742 709.579403,159.152503 C710.554741,159.610887 711.699238,160.186532 712.372125,160.527655 L712.372125,177.898273 C708.563916,180.947059 703.58498,182.620693 698.263979,182.620693 C692.863218,182.620693 687.826468,180.899089 684.000593,177.770352 L684.000593,160.543645 C684.704529,160.197192 685.905768,159.616217 686.892348,159.152503 C687.755271,158.74742 689.750914,158.262386 691.158784,157.953243 L692.715471,171.965933 L692.715471,171.965933 Z M702.919052,160.858118 L701.80935,170.931904 L698.282715,171.512879 L694.754475,170.931904 L693.635673,160.858118 L702.919052,160.858118 L702.919052,160.858118 Z M698.452409,149.132018 C700.19592,149.137348 702.244024,149.30791 704.147057,149.718323 L703.154054,158.7261 L693.398529,158.7261 L692.400173,149.734313 C694.396886,149.30791 696.579353,149.132018 698.452409,149.132018 L698.452409,149.132018 L698.452409,149.132018 Z M681.859346,177.711722 L681.417713,178.836361 C680.855636,177.333288 680.282317,175.419802 680.161872,173.580936 C679.930082,170.041786 681.683763,168.053679 681.753889,167.973729 C681.793502,167.931088 681.827762,167.888448 681.859346,167.840477 L681.859346,177.711722 L681.859346,177.711722 Z M716.632137,166.854419 C716.43086,163.39522 715.981733,156.103718 715.716219,155.22426 C715.227479,153.603926 711.395716,150.805652 709.771044,149.675683 C706.205867,147.202542 700.208232,147.00533 698.41922,147 C696.5922,147 690.354211,147.191882 686.778862,149.675683 C685.153655,150.805652 681.321357,153.603926 680.833688,155.21893 C680.568173,156.098387 680.119582,163.38989 679.918305,166.849089 C679.290919,167.680576 677.786693,170.073767 678.025442,173.719518 C678.234213,176.906885 679.582664,180.168872 680.293023,181.698596 L679.908669,182.679324 C679.820343,182.903186 679.811242,183.148368 679.882439,183.37756 C679.910275,183.468171 680.274822,184.62479 681.08582,186.330405 C681.217507,187.460375 681.364718,188.723595 681.513534,189.986816 C681.742648,191.932283 681.974973,193.877749 682.155909,195.338182 C682.247447,196.068398 682.325602,196.681353 682.384487,197.113087 C682.455148,197.630101 682.532233,198.189756 682.889286,198.488239 C683.174607,198.845352 683.967404,199.916691 684.737183,200.950719 C688.6107,206.168834 690.872928,209.116349 691.731568,209.739964 C691.814541,209.803925 691.909827,209.857225 692.011536,209.905196 C692.021172,209.910526 692.030272,209.915856 692.039372,209.921186 C693.00561,210.37957 694.798905,210.40622 697.682631,210.41155 L700.019803,210.41688 L700.020338,210.41688 C702.571099,210.41688 703.913661,210.320939 704.643292,209.787935 C705.492832,209.169649 707.785037,206.243455 711.717439,201.06265 C712.523083,200.001971 713.352817,198.909312 713.649379,198.541539 C714.017139,198.248386 714.094759,197.678072 714.166491,197.155727 C714.22484,196.723993 714.302995,196.111038 714.393998,195.375492 C714.575469,193.91506 714.807259,191.969593 715.036372,190.018796 C715.197501,188.643645 715.35756,187.273823 715.496205,186.074563 C716.223694,184.512859 716.560405,183.473501 716.587706,183.38822 C716.663721,183.148368 716.653014,182.892526 716.557194,182.663334 L716.210312,181.821187 C716.906217,180.334104 718.311411,176.986835 718.524465,173.730178 C718.763749,170.084427 717.258452,167.685906 716.632137,166.854419 L716.632137,166.854419 L716.632137,166.854419 Z" id="ironman_logo_icon" sketch:type="MSShapeGroup"></path>
            </g>
        </g>
    </g>
</svg>