<?xml version="1.0" encoding="UTF-8" standalone="no"?>
<svg width="178px" height="44px" viewBox="0 0 178 44" version="1.1" xmlns="http://www.w3.org/2000/svg" xmlns:xlink="http://www.w3.org/1999/xlink" xmlns:sketch="http://www.bohemiancoding.com/sketch/ns">
    <!-- Generator: Sketch 3.3.2 (12043) - http://www.bohemiancoding.com/sketch -->
    <title>Shape + IRON MAN</title>
    <desc>Created with Sketch.</desc>
    <defs></defs>
    <g id="Demo-1" stroke="none" stroke-width="1" fill="none" fill-rule="evenodd" sketch:type="MSPage">
        <g sketch:type="MSArtboardGroup" transform="translate(-47.000000, -33.000000)" id="banner-+-Rectangle-34" fill="#FFFFFF">
            <g sketch:type="MSLayerGroup" transform="translate(-34.000000, 0.000000)">
                <g id="banner" sketch:type="MSShapeGroup">
                    <g id="Shape-+-IRON-MAN" transform="translate(81.000000, 33.000000)">
                        <path d="M28.2624746,21.8617241 L27.8482864,20.952931 L27.8482864,14.0881034 C27.9301562,14.1786207 27.9301562,14.1786207 28.0571954,14.3451724 C28.1043813,14.4103448 29.4352684,15.7572414 29.2606399,18.1613793 C29.1662679,19.4612069 28.7024739,20.8225862 28.2624746,21.8617241 Z M27.4147399,8.20448276 C27.3558582,8.17913793 25.9624597,7.5237931 24.8178969,7.04224138 C23.9378982,6.66931034 22.1617689,6.28913793 21.1543277,6.09362069 L21.6132822,2.33896552 C22.2686432,2.54534483 22.864316,2.7987931 23.3531145,3.10293103 C26.0015798,4.7612069 27.0969402,5.8437931 27.2058309,6.09 C27.2574532,6.28189655 27.3409361,7.09293103 27.436518,8.21896552 C27.4288553,8.21534483 27.4228058,8.20810345 27.4147399,8.20448276 L27.4147399,8.20448276 L27.4147399,8.20448276 Z M27.3199646,23.8639655 C27.2272058,24.5989655 27.1243645,25.4027586 27.0178935,26.2318966 C26.4782793,27.2493103 25.6660349,28.5853448 24.5255051,29.9684483 C22.0544914,32.9663793 21.5745654,33.6108621 21.5556104,33.6398276 C21.5463345,33.6506897 21.5410916,33.6651724 21.5330256,33.6760345 C21.5249596,33.6905172 21.5144739,33.7013793 21.5072145,33.7122414 L19.7814976,36.8006897 L18.830115,36.1055172 C18.6550831,35.9787931 18.4377049,35.9281034 18.2296026,35.9462069 C18.2090343,35.9462069 18.189676,35.9425862 18.1691077,35.9425862 L12.9262193,35.9425862 C12.897585,35.9425862 12.8709673,35.9462069 12.8435429,35.9498276 C12.6269713,35.9281034 12.4015271,35.9787931 12.2236722,36.1163793 L11.3561758,36.7862069 L9.73370349,33.9693103 C9.71797484,33.9294828 9.69821318,33.8860345 9.67280531,33.8462069 C9.63691172,33.7882759 8.77183511,32.4087931 6.67427641,29.9503448 C5.57165665,28.6577586 4.7759475,27.3941379 4.23431679,26.3948276 C4.11977985,25.5041379 4.00887259,24.6351724 3.90885441,23.8494828 C3.89796533,23.7662069 3.8693311,23.682931 3.82617809,23.6068966 L4.29319846,22.5351724 L6.23548701,25.7286207 C6.34316783,25.9060345 6.52747554,26.0363793 6.74525704,26.0834483 L11.2460752,27.1081034 C11.3118129,27.1225862 11.3783573,27.1334483 11.4444983,27.1334483 C11.6336456,27.1334483 11.8191632,27.0718966 11.9667707,26.9596552 L13.6719193,25.6598276 C14.3095352,25.7141379 14.9544105,25.7431034 15.6061419,25.7431034 C16.2369017,25.7431034 16.8608054,25.7177586 17.4782563,25.6634483 L19.1765489,26.9596552 C19.3237531,27.0718966 19.5092706,27.1334483 19.6988212,27.1334483 C19.7649623,27.1334483 19.8315067,27.1225862 19.8968411,27.1081034 L24.3976592,26.0834483 C24.6154407,26.0363793 24.7997485,25.9060345 24.9074293,25.7286207 L26.8368122,22.5568966 L27.3631176,23.7082759 C27.3429526,23.7589655 27.3268207,23.8096552 27.3199646,23.8639655 L27.3199646,23.8639655 L27.3199646,23.8639655 Z M25.9511674,34.2118966 C25.6632119,34.5124138 25.221196,35.0374138 24.4545244,35.9498276 C23.2288984,37.4053448 20.8776646,40.1968966 19.8730465,41.2143103 L18.830115,40.4503448 C18.6546799,40.3236207 18.4377049,40.272931 18.2296026,40.2910345 C18.2090343,40.2910345 18.189676,40.2874138 18.1691077,40.2874138 L12.9262193,40.2874138 C12.897585,40.2874138 12.8709673,40.2910345 12.8435429,40.2946552 C12.6269713,40.272931 12.4015271,40.3236207 12.2236722,40.4612069 L11.2601907,41.207069 C10.257589,40.1896552 7.92450369,37.3582759 6.71218653,35.8846552 C5.98100527,34.9975862 5.5567346,34.4834483 5.27765159,34.182931 C5.19215218,33.6760345 4.96428819,31.9924138 4.69851407,29.9684483 C4.91750549,30.2544828 5.14617608,30.5405172 5.39380175,30.8301724 C7.01587076,32.7310345 7.87973749,33.972931 8.16003037,34.392931 L10.3350225,38.1693103 C10.4910992,38.4118966 10.7342886,38.6436207 11.1033073,38.6436207 C11.4388522,38.6436207 11.667926,38.4553448 11.6735722,38.4517241 L13.0480156,37.3908621 L18.0331959,37.3908621 L19.5411313,38.4951724 C19.5431478,38.4951724 19.5451643,38.4951724 19.5467775,38.4987931 C19.5572633,38.5060345 19.5693622,38.5132759 19.5806546,38.5205172 C19.5875107,38.5241379 19.5951734,38.5277586 19.6020295,38.5313793 C19.7242291,38.6327586 19.8936147,38.697931 20.0815521,38.697931 C20.3598285,38.697931 20.5985816,38.5567241 20.7002129,38.3612069 C20.7256208,38.3286207 20.7506253,38.2960345 20.7699837,38.2634483 C20.7707903,38.2598276 20.7715969,38.2598276 20.7724035,38.2598276 L22.9260207,34.4037931 C23.0482204,34.2444828 23.6632515,33.447931 25.822515,30.8301724 C26.0790132,30.5187931 26.3157498,30.2110345 26.5415973,29.9068966 C26.2709836,31.967069 26.03828,33.6905172 25.9511674,34.2118966 L25.9511674,34.2118966 L25.9511674,34.2118966 Z M4.01653527,6.10448276 C4.13147552,5.84017241 5.22643261,4.7612069 7.87570448,3.10293103 C8.35845354,2.80241379 8.95372302,2.55258621 9.61311705,2.3462069 L10.0748945,6.09 C9.04849832,6.28913793 7.23526551,6.66931034 6.35204045,7.04224138 C5.38250938,7.45137931 4.15002728,7.99810345 3.79673726,8.1537931 C3.88909275,7.06396552 3.96854268,6.28551724 4.01653527,6.10448276 L4.01653527,6.10448276 L4.01653527,6.10448276 Z M11.4259466,17.057069 C11.4279631,17.0751724 11.4336093,17.0896552 11.4364323,17.1041379 C11.4408686,17.1258621 11.4453049,17.1475862 11.4517577,17.1693103 C11.4590171,17.1946552 11.4690996,17.2163793 11.479182,17.2417241 C11.487248,17.2598276 11.4945074,17.277931 11.5045899,17.2960345 C11.5174955,17.3213793 11.5332241,17.3431034 11.5493561,17.3648276 C11.5602451,17.3793103 11.5699244,17.3974138 11.5824266,17.4118966 C11.6005751,17.4336207 11.6215466,17.4517241 11.6425182,17.4734483 C11.655827,17.4843103 11.6683293,17.4987931 11.6828481,17.5132759 C11.7062395,17.5313793 11.7320506,17.5458621 11.7578617,17.5639655 C11.7727838,17.5748276 11.7868993,17.5856897 11.8026279,17.592931 C11.8453776,17.6182759 11.8905471,17.64 11.9373299,17.6544828 C11.9433794,17.6581034 11.9498321,17.6581034 11.9558816,17.6581034 C11.9986313,17.6725862 12.0421876,17.6834483 12.0877604,17.6906897 C12.0905835,17.6906897 12.0934066,17.6943103 12.0962297,17.6943103 L15.4891851,18.1975862 C15.5323381,18.2012069 15.5762977,18.2048276 15.6202573,18.2048276 C15.6642169,18.2048276 15.7081765,18.2012069 15.7517328,18.1975862 L19.1434784,17.6943103 C19.1463015,17.6943103 19.1491246,17.6906897 19.152351,17.6906897 C19.1975205,17.6834483 19.2410768,17.6725862 19.2838265,17.6581034 C19.2898759,17.6581034 19.2963288,17.6581034 19.3023782,17.6544828 C19.3495642,17.64 19.3947337,17.6182759 19.4370801,17.592931 C19.4532121,17.5856897 19.4673276,17.5748276 19.482653,17.5639655 C19.5080608,17.5458621 19.5338719,17.5313793 19.55686,17.5132759 C19.571782,17.4987931 19.5842843,17.4843103 19.5979965,17.4734483 C19.6185647,17.4517241 19.6395363,17.4336207 19.6576847,17.4118966 C19.6697837,17.3974138 19.6798662,17.3793103 19.6907553,17.3648276 C19.7068873,17.3431034 19.7226159,17.3213793 19.7355215,17.2960345 C19.7452007,17.277931 19.7528633,17.2598276 19.7609293,17.2417241 C19.7710118,17.2163793 19.7810943,17.1946552 19.7883537,17.1693103 C19.7948064,17.1475862 19.7992428,17.1258621 19.8032757,17.1041379 C19.8065021,17.0896552 19.8121483,17.0751724 19.8141648,17.057069 L20.9772794,7.54189655 C22.0169846,7.75189655 23.4837834,8.07775862 24.1310785,8.35293103 C24.8658895,8.66431034 25.728143,9.05534483 26.2350899,9.28706897 L26.2350899,21.0868966 C23.3660201,23.157931 19.614935,24.2948276 15.6061419,24.2948276 C11.5372571,24.2948276 7.74261579,23.1253448 4.86023701,21 L4.86023701,9.29793103 C5.39057535,9.06258621 6.29557855,8.66793103 7.03885883,8.35293103 C7.68897701,8.07775862 9.19247605,7.74827586 10.2531527,7.53827586 L11.4259466,17.057069 L11.4259466,17.057069 Z M19.1132309,9.51155172 L18.2771919,16.3546552 L15.6202573,16.7493103 L12.9621129,16.3546552 L12.1192177,9.51155172 L19.1132309,9.51155172 L19.1132309,9.51155172 Z M15.7481031,1.54603448 C17.0616484,1.54965517 18.6046708,1.66551724 20.0383991,1.94431034 L19.2902793,8.06327586 L11.9405562,8.06327586 L11.1884034,1.95517241 C12.6927091,1.66551724 14.3369595,1.54603448 15.7481031,1.54603448 L15.7481031,1.54603448 L15.7481031,1.54603448 Z M3.24704057,20.9601724 L2.9143188,21.7241379 C2.49085473,20.7031034 2.05892138,19.4032759 1.96817908,18.1541379 C1.79355056,15.75 3.11475846,14.3994828 3.16759064,14.3451724 C3.19743477,14.3162069 3.22324592,14.2872414 3.24704057,14.2546552 L3.24704057,20.9601724 L3.24704057,20.9601724 Z M29.4445443,13.5848276 C29.2929038,11.235 28.9545359,6.28189655 28.7544995,5.68448276 C28.3862874,4.5837931 25.4994724,2.68293103 24.2754596,1.91534483 C21.5894875,0.235344828 17.0709243,0.10137931 15.7230986,0.0977586207 C14.3466388,0.0977586207 9.64699416,0.228103448 6.95335942,1.91534483 C5.72894329,2.68293103 2.84172496,4.5837931 2.47431947,5.68086207 C2.27428311,6.27827586 1.93631845,11.2313793 1.78467798,13.5812069 C1.31201143,14.1460345 0.17874092,15.7717241 0.358612324,18.2482759 C0.515898978,20.4134483 1.53180944,22.6293103 2.06698736,23.6684483 L1.7774186,24.3346552 C1.71087425,24.4867241 1.70401816,24.6532759 1.75765694,24.8089655 C1.7786285,24.8705172 2.05327519,25.6562069 2.66427335,26.8148276 C2.76348493,27.5824138 2.87439219,28.4405172 2.98650934,29.2986207 C3.15912136,30.6201724 3.33415317,31.9417241 3.47046827,32.9337931 C3.53943242,33.4298276 3.59831409,33.8462069 3.642677,34.1394828 C3.69591248,34.4906897 3.75398755,34.8708621 4.02298806,35.0736207 C4.23794648,35.3162069 4.83523247,36.0439655 5.41517662,36.7463793 C8.33344899,40.2910345 10.037791,42.2932759 10.6846828,42.7168966 C10.7471942,42.7603448 10.8189814,42.7965517 10.8956082,42.8291379 C10.9028676,42.8327586 10.9097237,42.8363793 10.9165798,42.84 C11.6445347,43.1513793 12.9955867,43.1694828 15.168159,43.1731034 L16.9289629,43.1767241 L16.9293663,43.1767241 C18.8510865,43.1767241 19.8625607,43.1115517 20.4122574,42.7494828 C21.0522931,42.3294828 22.7792199,40.3417241 25.7418552,36.8224138 C26.3488203,36.1018966 26.9739339,35.3596552 27.1973616,35.1098276 C27.4744281,34.9106897 27.5329065,34.5232759 27.5869486,34.1684483 C27.6309082,33.8751724 27.6897899,33.4587931 27.7583507,32.9591379 C27.8950691,31.967069 28.0696976,30.6455172 28.2423096,29.3203448 C28.3637027,28.3862069 28.4842891,27.4556897 28.5887436,26.6410345 C29.1368271,25.5801724 29.3905022,24.8741379 29.4110705,24.8162069 C29.468339,24.6532759 29.460273,24.4794828 29.3880824,24.3237931 L29.1267446,23.7517241 C29.6510334,22.7415517 30.7096936,20.4677586 30.8702067,18.2555172 C31.0504814,15.7789655 29.9164043,14.1496552 29.4445443,13.5848276 L29.4445443,13.5848276 L29.4445443,13.5848276 Z" id="Shape"></path>
                        <path d="M52.328,29.656 C52.328,30.472 52.976,31.12 53.816,31.12 C54.632,31.12 55.28,30.472 55.28,29.656 L55.28,15.544 C55.28,14.728 54.632,14.08 53.816,14.08 C52.976,14.08 52.328,14.728 52.328,15.544 L52.328,29.656 Z M59.768,29.656 C59.768,30.472 60.416,31.12 61.256,31.12 C62.072,31.12 62.72,30.472 62.72,29.656 L62.72,25.144 L66.44,25.144 L70.52,30.352 C70.856,30.808 71.288,31.12 71.96,31.12 C72.68,31.12 73.376,30.568 73.376,29.752 C73.376,29.296 73.184,28.984 72.896,28.624 L69.68,24.568 C71.936,23.872 73.496,22.24 73.496,19.552 L73.496,19.504 C73.496,18.04 72.992,16.792 72.104,15.88 C71.024,14.824 69.368,14.2 67.256,14.2 L61.256,14.2 C60.416,14.2 59.768,14.848 59.768,15.688 L59.768,29.656 Z M62.72,22.528 L62.72,16.888 L67.016,16.888 C69.2,16.888 70.496,17.872 70.496,19.672 L70.496,19.72 C70.496,21.424 69.152,22.528 67.04,22.528 L62.72,22.528 Z M85.136,31.288 C90.296,31.288 93.944,27.328 93.944,22.6 L93.944,22.552 C93.944,17.824 90.344,13.912 85.184,13.912 C80.024,13.912 76.376,17.872 76.376,22.6 L76.376,22.648 C76.376,27.376 79.976,31.288 85.136,31.288 L85.136,31.288 Z M85.184,28.552 C81.848,28.552 79.472,25.864 79.472,22.6 L79.472,22.552 C79.472,19.288 81.8,16.624 85.136,16.624 C88.472,16.624 90.848,19.336 90.848,22.6 L90.848,22.648 C90.848,25.912 88.52,28.552 85.184,28.552 L85.184,28.552 Z M97.52,29.68 C97.52,30.472 98.168,31.12 98.984,31.12 C99.776,31.12 100.424,30.472 100.424,29.68 L100.424,19.024 L109.064,30.208 C109.472,30.736 109.904,31.096 110.6,31.096 L110.72,31.096 C111.536,31.096 112.16,30.448 112.16,29.632 L112.16,15.52 C112.16,14.728 111.512,14.08 110.696,14.08 C109.904,14.08 109.256,14.728 109.256,15.52 L109.256,25.84 L100.856,14.968 C100.448,14.464 100.04,14.104 99.32,14.104 L99.008,14.104 C98.168,14.104 97.52,14.776 97.52,15.592 L97.52,29.68 Z M123.68,29.68 C123.68,30.496 124.304,31.12 125.12,31.12 C125.936,31.12 126.584,30.496 126.584,29.68 L126.584,19.624 L130.664,25.744 C130.976,26.224 131.36,26.512 131.888,26.512 C132.44,26.512 132.824,26.224 133.136,25.744 L137.24,19.576 L137.24,29.656 C137.24,30.448 137.912,31.12 138.704,31.12 C139.544,31.12 140.192,30.472 140.192,29.656 L140.192,15.592 C140.192,14.776 139.544,14.104 138.704,14.104 L138.392,14.104 C137.792,14.104 137.36,14.368 137.048,14.872 L131.936,22.864 L126.848,14.896 C126.56,14.44 126.128,14.104 125.48,14.104 L125.168,14.104 C124.328,14.104 123.68,14.776 123.68,15.592 L123.68,29.68 Z M143.36,29.752 C143.36,30.52 143.96,31.12 144.728,31.12 C145.352,31.12 145.856,30.784 146.096,30.184 L147.512,26.944 L155.672,26.944 L157.04,30.088 C157.304,30.712 157.784,31.12 158.48,31.12 C159.272,31.12 159.872,30.496 159.872,29.704 C159.872,29.512 159.824,29.296 159.704,29.08 L153.464,15.16 C153.128,14.416 152.552,13.96 151.712,13.96 L151.568,13.96 C150.728,13.96 150.128,14.416 149.792,15.16 L143.552,29.08 C143.432,29.32 143.36,29.536 143.36,29.752 L143.36,29.752 Z M148.64,24.328 L151.592,17.536 L154.544,24.328 L148.64,24.328 Z M163.064,29.68 C163.064,30.472 163.712,31.12 164.528,31.12 C165.32,31.12 165.968,30.472 165.968,29.68 L165.968,19.024 L174.608,30.208 C175.016,30.736 175.448,31.096 176.144,31.096 L176.264,31.096 C177.08,31.096 177.704,30.448 177.704,29.632 L177.704,15.52 C177.704,14.728 177.056,14.08 176.24,14.08 C175.448,14.08 174.8,14.728 174.8,15.52 L174.8,25.84 L166.4,14.968 C165.992,14.464 165.584,14.104 164.864,14.104 L164.552,14.104 C163.712,14.104 163.064,14.776 163.064,15.592 L163.064,29.68 Z" id="IRON-MAN"></path>
                    </g>
                </g>
            </g>
        </g>
    </g>
</svg>